<mxfile host="app.diagrams.net" modified="2024-04-25T00:55:00.764Z" agent="Mozilla/5.0 (X11; Linux x86_64) AppleWebKit/537.36 (KHTML, like Gecko) Chrome/121.0.0.0 Safari/537.36" etag="UE4dVf5q-2mJs_KTcOpk" version="24.3.0" type="device">
  <diagram name="Page-1" id="HuCuGDOyS_Dv9swh0619">
    <mxGraphModel dx="3897" dy="2266" grid="1" gridSize="10" guides="1" tooltips="1" connect="1" arrows="1" fold="1" page="1" pageScale="1" pageWidth="827" pageHeight="1169" math="0" shadow="0">
      <root>
        <mxCell id="0" />
        <mxCell id="1" parent="0" />
        <mxCell id="UMffj6f-WVmhNxOPsVtC-3" value="ChatGPT" style="shape=image;verticalLabelPosition=bottom;labelBackgroundColor=default;verticalAlign=top;aspect=fixed;imageAspect=0;image=data:image/webp,UklGRlBtAABXRUJQVlA4TERtAAAvr8QrEVVxXv9//txI0r9e/8ac9qlK/ZTOrKp0Vrl2Z2XW5lyd6a32XGrLtdLlcm1dWXWQF0V8lu/7+4vf4WdKh4Do4Tf7TJ5mn8ksyuCDDoKAMRghWsMEiEQ0SuKSx2qyZytsClOoEYxA1a2DQKRFJlnqdBWK2RcfRIskwL16IMENOgh0EBgz1Usts88k6KCDQAnqakPSaXCRCTKYygEfg0FFCkTjQgZRahCDQIdgEmQYkwUJvffsMz9Qgg8CmTQInJSniCYOPrjoNWefUe/bKRjiEKAfFVCm3Dh7XKTBBW5fCn5zm6BKjSBrkoKg1KABFYY2mOzZe8tebs0cf9PEFFKmQHSADjq48KH3fS+YfS1BXDIOUbjBQbhbYBLnrLdebv2efdLIjXX40UkcZLDS0Vt1Uefe9/bBoGpH/wwWDpiAF3FQ77rNPtNLml58MGhAoASBSQmpq4KeH5p9X3pfaqNIygMGHeIgEDk4IVONDirmlLPfDD4Y0oPIoDuAmm3bUYKJmv9QagD192sL3n0JIqAIioAJiR32gmDnW5IkS5Ik29L//6v6j3q+9NVNmEVUbqqiFNgAICBJOdu2bdu2bdu2bdu2bdv2n21jvhNgJ0eL/EVa5P9fogu6/0ttIclWGl+BUmzFS3tfVQtLLQtJy7DSJK1KMXtZ8YaFhZVirfl97mch5v/LLIKpLPKX8DehFdFujfiGj/k7LSTVLUB7C2OIhTnHAtloIRy0ABctjAcW4IMF+N8CsDq2AAEL8P6zWiAXLOABC7ChNL5ZpRiDSwm0+z53+kFP9fe/EUw+y3SF/EGlIKUsYLP9SrEutDD2WsBbFuA7rKgtwDcLcMMC7LFA5pcmDCpNXxMLSYkLElP8enKFMNm2vCD/P50FrFJKsHsp5mwLZJ+F8MgC/IMVtwX4+1nvawFmWsCupemrdAGfaW5gft1gkT+StBSzwhMswFILcN4C/ITV+KTPaiFuK00yujTQ8C+zuCuMSfXN7xRWmjDFAhy3AL9glT7plJtYCJ3uZ3ER1VQ6pJRgvn+rNH1rLMC9irBy72IB7pRiripN6GwB8/z61QptBj3cQmhQ2sP017IAf2A1bwF+WwhnSgFTS3uo96nMnE8VdhML8BhW+BbgpQVY+4i/7BX/WUFMmAsITf8BFmCzBXgHK34L+NoCrC8NdHiMmXKh//8VszSkxu0twBMEAbQwXpUPs7gezwx5lp9/BC9NX+HSJOMswJWKCDLY5dvseCfLvyuYqfGonW5yGwQ5vE/5m1/45xfZpLBAkpT2vm4W4MgDEERx7T/oEe1Mh5/wiBYVEbTxlP0eYyJYSNN+EQvhOoJEWoDLFsLAH2QKvOojWiAI5Sn7/QTie9Rv9zt2QRDLLn/QD9iC7J7MWUHvdxML5AeCZP79r7PTphR3ASDlfhbgPwThtADPd3w4sV1E/hX2y1jAEwjqWdECHP3bHkRnD9/xeAQJtQCfbv/fkdh//VHvUBFBR1vsdAPqOrsUY4AFeIEgphbIs1LQvk8uGZ2yLgDLdPtXQRDUv/8mFtcyEFW7Df8gBFWteN9SAmVPpactb24BbiJI6+s94kG0ZPnxn/CPsABPEeS12n5vSEdPTharFHOkBfiIILH3KU0YahlpDBq6/473RJDZh9x0kd//jUM/Z+94TwSpfchNo2nn7B1fBUFu//7bP8Vox6WbR+34KgiSe8+b3p9mfqNwhXvCkxBk1wJ82XFXetkyrBqC9FqAt094mv/+DEUrp37Lj0SQ38/6ZqcSygXA3B8LQYIt4Nm/k0oeXr4iggq/zgWkJKOQR910bQQh/vuHvSF1tLv5gxHE+PhHtCONC0KyWxinEATZApx7D7q4EDPaTbsgSHLFm5xNE+1KCbR7GIIs3ybsVIK4oPfL+OoI0vyxbkENf85+d0MQ50k3vS4plMav/EciCPRnfS86+E0jiXJ7BJEuH0kEH/WeCDJ971JCq1HA2eURpLr8/Q1faZLa10MQ6wf/eGO3RWmSZQiCXf5RBu5ffU0Eya7WxqgdsmMXBNGuePssQ2YRyPm+CML97heQO6vxOvURd0OQ7rX3a2ewzrYAOxHk+74WttiGqrQrxe6CIOAPtjBKG6cbWCBjKyJIeJfS3jdiU4P0qi0QZPx3nGKIXq0agpBbgDf3Mz6nPuEBCFL+gP3aGZxIC7ALQc4tjC1bGJo3sgAPEQTdAty/hYF5s4cgSLoF+PraRuXU/SoiiHrFHdsZkl0/EEHYLcCOLQzID7IAdxGkvZfFRXLDcafrIYj7fV7NYPyAtRHk/W4WZmMjcep+CBJ/03aGIesDEUT+y/85BiHyYyHI/Jvc3xB8qi+LIPT/58MNwAUYOR6MIPX3/su0rzRQsgmC2D/EApTTvFKCTSchyP3af5vWfeqKCIJf0QJ21bgnIIj+jrp2ainGJATZ/xfbadmmpUkWIwh/KYHlN9CwLS2MTQjS/zq31K5bfiCC+G/wIM065L4I8v/eh2jVn/MOsAFogRy+rkZd93eETUALcChLm/6crwQbgRbg2HU16ZBbwWbgOxyiRVtagO2wIVjjQRq05evApuB731J7bvCBsDH46TbVnHZvBZuDb95ObyyMybBB+C9qze8Om4SP1JhSjI6wUfhvacs6FW0VVPzbNOUjJsFm4dqfUUs++CGwYXjPC3rIpSE/8d6wafim62vHk0tGf1/YOHy9szXjz3l12Dx8kyytaLc3bCB++XY6UUroeNhEtADDNWId2Ei8uTaUAgvezVbC2qWkFtGEn3g92Ew8/uFa8JtGEuXLwobiu++qAe02gE1FC7C1nfpKgWNgY/GLKO/7VLS1UHEnxX2Ch8Dm4uNuobTId4MNxtfbQmHtPhQ2GV/nVHV9OGw0lob0VJYFUvQBthoecD9FvXE12Gy89xQlbfpOsOHYcFMVfXrYdCwlOExB79XFtkOXj6ucs6vBxuP7fyXFnPoFYfPxQ09Vy/vBBuQnV8r3XNsWxN9/wf+/LAr5c94XNiHf/RB1/OmwEfm1lPGvVrQVUfEzKmKLnWEz8v0fpQYLYTVsSB6thF8Dm5I/XgFf6cG2Ja53tvws4DrYmCwNrJTeTrA5+TaSi7y37Ym7/FtyeyvYoLQQFkntnWGT8gtI7M/5krYp3i1LXreGjcpfJ603WttWxaRPIKl2FuAkbFZagNPt5GQB2sOGZSnWFlLq+TBbFvf5SjK6MWxa3l5CH9zFtkWX7ymddm8CG5dv3U42vx1sXn4yyfxb17N98eAt5PJxYAPz1lL5iXezhXG39WWyN2xilpeIhbUQbGTeSRqnvrX5diFJFw3V00/Ms8y2Z5tvSyzdZauwlE7PbdML7NpVDi3mKsfjxS5X+/bXuF3Xul8rm9D+RU4t5gX37fm3ZZ897vxcS3eJuXuWxDxdrJ56RKUB1iYbnyqLUoz6MMtLMz3NWFV5zqW73Co897pcqWlXu14v8Rgf7bO8orME1ldwlpd+Ptdux4udjyvu2zKmXLoMF8/cMRf2yUoEbyaJW36k+XVBhqcN1cXT7bKr8Lyb8qLnY4XHuM53YYFf7r0MuPKhLVOnJs80NU/pk9XHZ91SDh8AM9vCMDhsqTo1zHiF78LSTLnq+XieTblUGZ4p2S4swYoDpT1pK4Xr3tus8j/jxFy6dM+3bde4Hh/t/bCMX/G7ZFy5aUuqsHi6PaUkK427ZMngkTCjnzpQYcuty9Wv18t/FpZ8fOJ6Txeb0gzWF7Cw9JbAV7IAn80m1zGXqUKXlxweVmXvgXs8c2L8VhZPepR4FmACTOVFA3XJpeuSwqp9+c/T/go6HZ9pRYFdhHvVX2Qe5T/7fHu+bclgVb/c64m5ZOEuEiiriYf0FO3jwCSu27iHhxV/7W4sZ8v0TKsIDBMs+lVMocUis3SdBrAevuzrSXz2hfNaQTzkbLFuCtM382LpFvvSw2CdTI0JXUSQtQM+vVBv/Cpmz8JlbZnA+pnUreRCAqwbHnK2SF8Lpu4xHV+yH6yrL/d+XmDfqrisGLCjQD3vaeKMuLxKO7Detl3apKcJlfXC476SOBbiKJi1mdu/0PFwsgZf/XaVLCLASgFfRJhdn2TSXGREl1ehP+tycuzTx8Y64T7XFeX9YMZmhr3I+fCwViec6LdCwAcIcsv3NGG8FeJZv1Mip1gfvOaWYpwE03Xw86xLNuu580r79gwTY22AUmAjIdq9r9lSlPgK34c1vsUlss1lXXDKqSKUAivDVHWEXqsdrPtHl/itCVBKoKwIFuCQmZJ54vLdYCO44vBcpgyLMFgR3FeAW1Q0T/wl8WwUX+Y5Lq/CVKsBvFHg+wUwSy8oaL22bCRTGk+1FihNMjfQ3f8XmSS5lyrcSw2DjeaES1fBbx3w958d2B4Jc/RiM3M0G9EVh1Eh0xoAFki/QHaDu5giiyfmmveLjery3XWJ+WYN8J6bBq5SrDVhgi4WmRg2sle9Xs8QK/MP3ydw/UHmx5TD3Gxs3a0uEpDpd99A9ZiKZkfaFVSIYuObWiPH5KvYKDB9OZic9Zd/DDbGw0rMPdw6EB1yH3Mj70VOBxvnq16OxSJl6lmAdw8KPF8GZqZ3DScbaeeyJuWYeLh54LEAJ82M7Xux0e7/rOlm4v2OgaZRRfOiMJGNeMxTjZRpV9HiInlg2RFmpatJOhvz9CZmHd4+kGz6nmbFRcdqIBv3zosGZNK9/38dOD4C5qRjyVVIZSM/rYk5hy8QOL68OXHRgHqw0V9nrCn3VoHiQsxodzMlQl/2/bDxTz7RjPtFWwSGUtDWMCGHdGEajBlivuEHBIbf0YSY/VLDw1S4Yj+eOdnMNwtjfyB4CvYEFiBgOuRs62M69NTINNu6vGrAvR/MxuAXbwfT4tUuRzWTDaXALgH3sc2GZ1u4ZKbGl3k9tU22kwPsAj7TwFwMj2WCdB+YaaqhUUB9EXMh78Xbi2myR6GpVtqT/gF1iqnwHLnLZqrsVWSmWYBLAdQIJmLmsrYwYV7n82xlomH9gPmTTIR6nZk2Y/3m2fsFzLcxD/KaM3W2GGeavUmAPMU4Elc0DWpPY/p8ycdYaJZV/JgB8fvDLCz2MIVmn2GS4QMC4oebBGlXahoTqafYJPuDAuBRFuCvOVCvB9NpdYcpNmmLsvdhMAXHXru9mFJ75phheLOy91amwDHDmFavebueyicz7CZlbdPbmAGzs1k7kzuMnDFj+ICX/y66wvENTLDj/+uyVUpqEZiATZyshc4V+nFcYuvNKpxeZWFhLla23kVDNXjwWkVFVc4oKa6xe6sXPh6HvNTz8egCj1pofqG0+8tbtkqTjDMBLq+TjxU/rUVidJMqlTIRKHPHPlOyhRbv3nmGW3mcXsf8Ku19I8qWheUq/e3KCve8RHdd+XDs23TRsYKQaceE7nvYII/KOLu+6fXWZemNK1Kfqzqresxh9yoKh+gLjq/5grvSL0tVXBBmdlmAwP3Lzt8G4s/ciVXsGRRbMgfy9Be16fZy70dJ7Hmu3JlceLOycxPiy71S01i9HZ93W7b3Qr7+ckuq1CdKPezZzuSyQOaXlVPvQnv+Fzo0VmxE+zZFkHfu9MgBqmH3EkUwtyzA07JyC5B+eGdWalzss2ZbDqQ/+F7rFCiF3VuZWvhBZeMDSM//wqeDFTotsakfirywpJJuToWwr4KpZQHal423pLzMjViZL/95Ypr6odQhJd2cymD3dmaWBVhbFk69HuFlbsSK9F31cpwVDgXn19xZFZwVamI9+NRV9/FB964X2BZWY0r1hVD2wsg4NbDzjADKHPsMsVo83UK32nBZm2Jj2g8YED/jpYbRoQOvpLtDhw4dhh0+oH3PKzZt28h9zwx75qmpu8B8wGNWXSmBdnTn2olV6O58Rz+UHn7WcT4VcMGRZWf+9OfM3eVU2r1hwqgsDsRRGS167n7npk8XqanmgYWk5ar7dnT3fJvCCszefQ40cGFskgI4u2iV1XvGqSlZxqRtdo5ioVMSuixjSq2nj02aCfDmq+49yW5pk1j+KdH50MS5xb3kx3GLhWol/JOb7N4jjuWZFR8THbpJLum95qp6OKi+Akv/2u1o4odG+p9j4QZIj3tdNDTlznz+XRtQwFKOSKh+YrCL6vAzVs3Nqe7Z5ptHdj1qu6CbtVvIjt0s+Q6dD2waQnKlgDqrphRzBtGNT2W5H9IUWjq9m+TUOCM2NITcvtyq+dE0NzOdpd7u4pmDtk7vrH1lzogNzSc1C3B6VVjcFWZtkqs2hmU+KNQFnS33QAPAzO4B0UUuMrvbg1bZnUDx3qNZ4sO2c0BzXaEZRqDMkYmhE2kMFjDPKvucFOcYyvJOivRCg/0VUowBM0d0vm0hhf3CVfbtKG45W1javo0qQZO9HQsMAjO7WxQXktdbrbL/k+BKWNrtzodG561jGJjZ06K4kLbedxX9JrQiVqS34wtk1eGSZXBAr09fcRjGgZmzOp8VTlgWIHDdVfJ4kHu17izpbmOh3TnREQaCmZNjp5MVbrNKPoDcFuzMcu4eBi0PPsJQMHPzy6tQSFT/8CopxVhCbtuwlH2xc6HpjsapxoLZ+cLHNttFURbI/FXyGtR2Z5ZyRhVofF4Pg8HMGW3q0dOPXgW3XJvY6jillOiF1rsqZBsN5uzYqtT0999g5d4ItB7SlyWcHgbtH5xgOJh9A5s6SAmPWblfQ2uOzizhXcbCAOZGewwHM6/Qj+JwSnrtlfu9aa0Gy9cZ7YAx3HqUAWFOiZ5LR3dYuU9HavU98slYC4YxpJsRYe4dmU9Fb7VyFvAWpRWOZOkOnQsD6Sp2GhHmqN1H0NBrrMyWkwjN1Y1l64t0wFg2m2BImF/+81QvpKC7bbpS/x0IvSbLtvd5MJzVEowJc3bkEPrBY1bqbQhtk1TZ9BsMA5obaVCY06Mnks87r5QF7EFn/he/XyzZKzUtB8Z0qyyDwpxyZz/xfMBK/Zl0tpxNLNllTHLBmG69Qv+wgc0IpR0LMG2lfi2Zne+RS9Z6MKbzh7LB3eXpY0U5771SH0llc/uyVJPrw5BO3cfDhtedWEg3r7cSt3wAlTViqa44jKowoq5ayWyIo6LDqWbSDcr4QSDyrX1SaTcCRrQong3zjNpEg59YxnsR2dQMlukDJ8KAVmvIhrrbFJr5uGWU9qQ5ke3DMj3IC+Ppv7xOTjbYycWZFPPJyvgiNFbHI5M+4TCeYelswNsVEUwpxoAyfgGJ5R7LEt3GD8M5rx8b86w1ppLLdy7j15JYDZboYbkwmvmJbNxnVKEWC7i7jPelsLwCicS6YDD9jZPYyLtjp9LKKWXck8L6sDwTHTCYF8tcdzb6g+qQyuPsdvsWIPAzWJ49c2Es83owAWZFphEKvrnd/oMILC1DHgPTYCiHrO5mGux3DKFYXCS32z81gS2lE0tzlxwYScdWUUyGEcUuMvkMdntpSA36mh8ljQQvjOTWY5gU98qnkrex2y1Ae/pqyLLcYQgM5JQXPV9MjX3PJ5K72u1vT16zWZYTKsE4Tt3dw/SYFZ1JIo+0278zdTmOlUVqHRhG17nJTJO7jKCQV7Pb/0vqasKS9JwHw/gMU/MS3WCyjNuaQCzAWrv9KxGXf4YsasIojnihY2PKzLq8CvRxX7v9LySuc1iSrWEQ/Xs4mTgPm0odb223vxttDUmXxFCHQbhjOtPnsQ2I4/Xs9ifR1rI2sRwz5sIQPm1kBjCJxtWnjevZn8xZQS1AgLSqpcohe7HIwAjmX6lpPibSrJqkMenULUDajViOm8MA5jZOYkKNzSUMXNcifwlJa7RTDmvAAD5raiYwrXaeSBiL0P/jW0jTklYjluIGufqX14PJdfh8uvhBfxllzXdKYdg46P6CA9xMsN2fIVZkYeEv899JWQewDN2LzzZovuu2UUyz2etSxW3ei7BGJEkhEpr/LFPTlsk2qwlR3O9tCGt3luG12uHXu/lXvVysn85hCXt13ePOnyt09vGTB+fXW/nBVevUDzuxwmbVY65+PeKzNYF9jWnC4rGiBahLV4WpMkg9ATo/tauHNdLddmDXmttPLkSgnJq39VbL2dTz6CTVMR9IEm/2WnS1BsuwAjTedcnlls26GNelzelV0yCga/7WZ369AQUq4yc6COLLfB2yurCkbBkMhcbXyWBNdPfaPwxi++c1qb5nlKr4MD893PWTk1VjluDIEH0r7MZamHLwOVW8kGPu+CVV6DZNSdwthxz+4V9IVZkzZHAWdN2/sZPVn75XhTmQrGNezZh09fBBC6jhk39OqrojS7APdD00nVWf3KVk0UBB0pnNljWpn2r4oKnEYAG7PoGqjpBA9nxNe9pItWPF913OlukOyH1cSUxvpfCeXlq4filoX6KqwxK8F7Q8fxtWetYGp1WDEsPDYpIUwrtMJYXSJH1KMQYQVRcJXPN2OXTMcZlVSmKF+3YuDoFCc5rGOJXBPRZQQmlP+j+SpqY4xSuYCQ2/+MyksMJfvBuXrlwIlJu/1UE+RfDAHEJ45H40dSCLv7RJ0O+6nVjdccuYUgmKDl4jTg08MI0O9qOp3FHijVqgXQsOcLOq3Ve7HqG5ULg/tL1PBTw017rlDBb/RGi2o2Yqqzru8nUJgfLzeqUrgBu5rFq6iZfg0qy/rC2rOr4kF1q4oGZ/+XFHa5axHuF8daDV1V7scrCi3Z3LQR8dTROkx+dYsezBwidCp3Nae1jNr/B5nm/XqkEzp3fzSc73uaxWHG2FS52vU02SWc3ORoXQ0Hkt5cbOi2ebtUptFr4G9Lkog9VcsJxN9aCpdQZKjVPHW6nECJc+UZvye7KanWsMgcYev4vMOGW0VcrECOHuAU32L1MHJyvZvX8hNHd2J4nx0V5rlHNZ9DivJl0iNS/zfFjN17gdedBfV+gYeXHnXCuUgcI1hhY/bWyGs5pX6Mb50OMFHSOkxdWtTwqzRJuQo0NDDnvF78NKTn/OxQZ9npIoLb6X1UlNFr0m9Dfz8joUsJKz1giHVm89XFZZta1NWojWN01/aqewmvtUg27nbpgkJ04Oti6p5BOtMXR3/gas5v7NoOODr3o+5MSHe61K2rDgvedqztRYNys5u6YDeu4qSZcS729NMvEU0faB1roqRLGS3Qd4oe+FDaXExdYhrk3ObbSDmwV3VtKaZmNYzUcMht5v3kFGzunWH4MrJI5iGR4Gja3WmdX80s/xrJmD9s8/SEKcMtaqY3SFmJEsy/X1xb+MLVms5Ig2uTCArmKnfDjBb62RUz9ygI/luQu0tUkyK3nWlfclBAZx/Ar9kA+vYZVReFrLJJZrmK5Mbs5qHrAJjKM3Vj6+7a0ugjc8ws2yTfHrSciLHBur+eTNYSxLkmTDKSFWFaOLW7CMlzEFOpq7h5OVfB1n6ZUGo/n0sekvG+7sspoYveEAlrMvT0fOiGM1tyyEAc0fKBuuaR2RE9rNw7JuD/0M7sRqXqEf5WBMMyN9kimYZ/3gmH1YKkv8ORabdnivuCs+VnL2uS4Y1jN6y4UH5Vg5FLZ5ycdgqaenaYajTQQrOaurF0b2mBWHIRd+ojWDo36MkyW/D/TyWWZbd1bzJ54PgztigFx8s60W6u3WluW/llZcZKx6sJrbng/j6+0jFW7rtU6YuW0UKzBbJ6Z2dbOSk5bUKRNGOHNbqXBXKwRX7fY+VuNofWgSxUp2v+C+zIVRLvbJxF3F2sDRtBOrcjh0sdkYVvM12zETBrqJUyKcMdWqwFvci9XZWBNGdGY1n3yJdIOxXi1CItzaisBbnMIqHa0F/n08rOSIpXXww2jXTpKI+3xrAW+bdFbqztDB51qGZFZzz3Ew4IunW5Q8+HC/VcDE6Gms2MYaMDme1dzvGBjz6b3lwZfXyQogZ7d0Vu5o5dX7Z1nN05YoHAx7Ubo8khqYff6Stqze/lB87tK2OFnJzuVsCYeBL+ogDe5p8oVmsIpbK+68OFbzwEow9uOzpcGrmXlFPVjNayrtaUMzgNXc8XgY/jUjpNEx3LQbG+tmNRekKWxB4ixWcnZNBwjwvCxZcA2TLic6iVX9paBs15IqRLCS3c+/b17QYIlbFgXBplzT/qzuCsqqncJq3nMOyLCxLLilCRfcmVXeQFEXHVMnVvOYKqDEhbLgI8228I2drPKToeScRm5WctLPyQQpuhJlMSjXXDv/cFb7VZqmpM/10T4PK9ndJQTU6D9IEryVmTYk1seK30pBzzxVY1jNAxaLDAgyP0MSIyeaZ5uPZOWfoJzCXVjNJz97HkCTM5PlwMuYYpaNi2H1Z7sU42/tYSUXfI00UOXsLDkkTTHHQuNYAztDrWcls5pbFoIwT5MD38oMC4lhLbysCkp5+ola4XGxmndYC7QZKwdnnvlVfxTr4fkKyR/Kap72HHkAdaYNkAJ3MbvSIt2shz6vMjJ3zWIlZ/XKAX0O7iAF91rm1sydWRdHQZVnxLGaB44Gia7rkwHvZWpdugwRrI19FDHnRqzm/tNBpb2k4Csyr7xdWCM3VMKC/X2s5OyamSDT3D1lwD1Nq/UzWCfXVIDrsquUxEp2rz4RlFo4QQa+eSZVzQLWynz5rTmB1XxEXRDrbJ8E+GBTKrwV62U2ZD/6EFbzhJNAr19PBr6qJtSigRrAmjlccv7n3TY3Kzni5+SCYBdkSIATzafa6aybV2ya3NZLZSXPSswHzTbzSMA52mRy7etm7VxSBZkVrdAPVvPOx4BsW0uAdzeX0hJZQ5vK68ICNmA1nxwGwg0fJIGofDMpZE/W0WBpnZjESnYuZ1I4SLfIKR7XMJGOGsY66vZLKm1PVnPDQlDvrhJISTONmkaxlk6DnJ9KwgRWcsdyoN+cGeJxiVlUOYv1NF5OJ9ydVZx9rgsUXFsC7cwhVzTranspvY+TFezZZxFBIOKe4vHxZpD/MNbWW8noqXzIZgW3XzRQIOP52eJtYwJ5j2N9XVIFCV1QQAqrt38VUPJu4mVVM33qJbDGbi6hg1i5L/9+znSAlHP7CcdXqJPZM6U56+x0+YSyat2rzwU1ryfemExzZ3BH1tpg6VxIUJJqbrQQ9BySLBxvb+ocM5L1tlA6Q1mt3T8EmusvXDRQczUM5cUbauasFceamyabELdSCmr4oa/5m79g0wZFublMz8t9lh1aPcd8uyBAq3KGCZc11rxZP5011wnZvvCpsUp7joO2Dilevrt8vGpnzVhKhwsy6ROaCMf3MG2K0ll3k2VTz62QfpOhrZsc5OOy6zk4X5scw4U73Kwpl83aO0E2y5jCynzZ53hHaGvVIzgA3T2fSpImobZwPN6cWasD6++BsllxGKrIWiMcupq/PwewZ1u/HqGHcAeYMmulswYPl0whK7JlNeiqf8MIDvioz6VH9YVLTzNhFsaxIp0xI0UaIJm7qiF+PLT14nM3kgPnjGeYKB1CC9H4dPMlOIXVGL+kCuPQX6QEyeypguxLV8kBXc1rwYF34BANqi1cjOkyZQyrMOKwKi5ArB6SiZOf+2dMhK56D3BzYM5qnak9aCFaqtdkGdKPFTgyshpWcoxI7eWSw9LfczB0NbNxEgf2l3kt52nPSaLxc+bOXJnaguWfUZyDlRVqHbkcJbteiycG2rr4zPRlEQcFaw4GiDbUVPF3Ztn7BtZ2YRX2EqmnXGbLLbU4E7o6ZSAL6rvK4fDqzVmiOfNNFFciS97Xsgir/KX6IVKMXJ4r32Q267AQ6OqCAzwsbsTlV8GlM/6+gvF2JsrGLPn2dbBq9WFDiQ2oCl11LVGGbBY75WKzTWOwoWgNzZPKLPf2dbDq9WFjaZ18icxBW4teoh8s/o3G6suQbMGiws2Sk7KktksRyqY+7CopZ2QadHXE7ViK7lbhuoInCsYXz5xJslY2S7z5uii7BmdoIXTVX8PJsnzsZUqnK3luwb6eOVLYi+WdXpwLzVm2TjKKLwdtvVk6y7R/HT3BOoKNdJghaUewtCM6elHWDUzvJQrngq6eMIBl2+KpRqQlYYJxHTPk67G0dzkBAWhYPM+zaV7oav6VmsYS9hzg15DcCYLVMEEqsay7lyBAjcrVL60BdDW3cRLLOflE/UCkYAnmx2yPpLJae2G82p4Pbb1Yto1iefd/uonRjmCfWJ58s6NBOss5YTIC2ogk7ZYJXc3rwXJ/kfM1VzPQQyw+y+QIH8BSdkZnQps2lob7BXZlLnR14gtsm5tl7+yYqRfbCdbK5FidpTx8LQTCYUaj00zoquPMKFbhyNpakZMtVi9zowLL2LmUTrkwXCnbQ1ufaWIyWJXLd9fTjEkjcJhYPNjMOCpCRkfPQ+A0FBE1/NDVsS96Olih7i5efWgqWGUTw3s4SzhxEUEwXD1DoKs5u/4WrNaIxi5d8KeLdZiJkcjy7X0WAq1xuFY3JkNb7/iy74XVO2FNTcDeYk0wLyqzfAfUhdFKbwJtLRrEar765XjqgPSgtlgcbFbMTJWObw0/DJYzMhy6mn+lQ2Nlu19g19J0IHekWE1MCv/OLNvs8xCo9WGZOonUeT501b+USU5WefIli6ABWF2sRibFcrawbDMWwmD9vsdDW3/LFFZ9/yL1nS7WIHPifI9sOteDsbrh7+6ArgZ3Yh1sH6I6b4FQvnwzYu4YlmxsLgyVu5EXulqvkZv10LmsKblqw0CheHszogvLNeJEBH6923MOdNVxqSqksj5O21xtxWJFmxBnsFw7VIGhclaBti6euWGsl8PrqixPrG7mQ36KXNpuAmM1Dbo6fyBrp6/hRHUhXqgU8+EwlurRU2AKeG/sZh1NuodDWdWF4mpmw7os1fYTYQa4KkexrqbMVtXpYjU1GYZ0l0qrXJgBx/++rLPXuF+LhkpNIT6hapgMsSzTWAdMgGp9WHPdO+WoCDsIdbC5MN4tkye6QH85S5vkZP19bE2Xgp4oVIapkNuPJRoJgekoLJ31eEwd9YQK5Z5qJpRnidYA/R01nPW5R6FqQnwicZGJMCdVIudAVQ3lsowOWjduG9bq6zhL6zS1IF6oJibCXizPzSD2KJFiqMB/hboUsG6/7llqOUyoNcyD+izP1qC+2cNYx+Mnq6SxUENNA//h8ngiiC84gTXd1zJEHecLdbhpsBtLs5WD9oYc4GZ9dy7MVMVUj0jOXJOgsLc0NsqEyhqq7uVeQ32Oyo9lvU8PUwT2EIkHmwRfj2XZIw1Ki5FLtADpypvUlvV/58FqaCVUbXNgkyxZDKoHwpuzCxvCWft7VVAsVE1z4FCW5ITRoLuprT1sFFN3c8hvtlD7mAKTWJKp40F2rrM6sJHsPkl6iwZKqBgzwDFAEp7zQHZFzdloJlSSnCtbpE5mQAlL8l5QX0ODVm0jNqCeW4VLDe1ESjEBwlcchiQSQXT+8k42pne/l9S6iOTLob97sBwPSSO6d3zZ12AFZr1k/yiJOX6exJbSSSTOI7+J6XJImQJpdieVyTuzCh+Y73rlr6Ak5oHjpBUqVBXyq8FSdFYBxeWv7mMFDhsPADnRTiWx8xv5JVVHqFDqm5guh/VAcLm/LJUVmFSMlR07VEnM6aFyGiFUTeqrwVJMBMHV78sKdF9pX0oLwCqtM0hJzMt312KxkpHDKdLGxDcxXQoZE6UygUbyjmMV9huNVelaonA3VBL7vu9c+aC/SF+P+GqwDJ3jYUi+hs7Mff5NcbMCU+qjLHqre1TEXHDXTOn0EKkl7U1Ml0IxiM2xXjYrMPXRKMt1D1IS86g1ZXOYSA+kvRosw0NdxFZlBitw1vdNQ9mvP0ZJzJ0ayGVZm0Tag/S86TLoHgJSmzKUVTi8AQLUUTlKSezeySuTxiJ1J73LVoEl6KsNSltEULSTFZh+HgK83o3dKmKOupdLHk1EiqC8zBX6IYNGIIQO0nNtns4KdB7oQmAMbqEk5l7TpdFUJA4nvJuxBEcNIbQ6y7cXq7CPF4H1jBQlMQ8slEQzoQoJL0ECvtogsxH7+1iB/asiEPuXVKFASeypHi6FTYSaQ3fnswRjQWX+Stf5LKzA5LMQyPNb+VTEnFwig0KhqtLdXhIYNYTKmr7062EFemIzEfjXv3Z3KYl50DHi+YWqQ3Z5bgmcBCNTQyOqXut2sAo3yIeQrlrpSmLf7UJEQ5JIk8juABb/YJBYvS1msQKHTYewOdFOFTE775orWLJI21Odt7d4qQ0oLLf4sazAqEtVCULPf9FTUxJzXFOxUkQ6neoqsPhtQGBrjmEFug9Lg+h1TlES84C6IvUV6WZUN0C8+DT6yuvMKhx+kbGBBF1LFO6GSuJZh00UJ0OkWkRXxOKvCYOzlE7qW3AHDysw5UhIckFrj4qYIzbLFGX57hKphOgaidcG9DBNLq4mvVmBzmgX5Jl3nJKYh1URpJ1I59KcN1u4BBdxTY9nBfr28kKus4cpiTlhtBAJIm1Fc7dl4ZuBtOb3YRXGB0O6uY2TlMSeW3kF6CRSBZrrJ1xPUFbOXZ2swGnPvtgg5Xqrz1IRc3YFV6A7VqTKJLc+i+7ZhLKaxrECs6pnQtbBr6Yk5o7PmJjAtoNITUiutXDbgq7W35lV+C5P6QNkPru7kpg7Fwauw0XajuIco0SLGkFW+Tv5WIF9n3GqIHn/z3mokjhrn7TA1FGkWhRXn0VfCKLyV4pgBd79k0CBIR/sUxFzeq1ANEakUIprJVrveoborgpqOoEV6PkZfqixaPnuUhLzH1E10IwSKYzgcpJF2xUkFdyCVXijEVBn2Mu8FyWxLyYkkPQWaTbB1WLBI0bILcWg1avuZgV2rwKlLiIo2qki5oLNcgODwy3SdILrI1p10JNjicJlswIjrqADlDt2qJKYb71aIBjCIq9Pb/lOwZzz9eV22rZ4YvqzAmfFhEPFdU5REvMhgwNstFAn0FsTFnwn6EtDTZvfk1U4KA+Kdk29oZLY3WpiAM0TatFA0dtegnmCjdJSKqjC+9zr5GEFxjWFwudu61YRc3ZNR4BUESqf3BYRlCrYRtCY22mY6z9IZwU6Ix1Qe95xSmIec35AnCGSO5PcwljwcjrTUHXJApQbxCrsfGEfoP7Zw5TE3L5S2WsiUjLILVGwnUFI1b4Sq7DjZGhhbs1UJbFnn/CytZlI/cktN06wynSUc9cCVuDdl8gdtDF/9VkqYk6u7Co7B4jUjtyOZLGnLSCjpimsQM/zbFoudPKEQ5TEvMe8stJTpOPIratgrUFETx+bdqzCHk/tE3Tz9JOVxNxyXFnoJNI25DZDLF+w3txOm/JjfazAvuWgof7yD1USFyxMW1XdRapObU8zVix2Z1CQ/3IqJLECUxtDU0fs71MR88nnrYpMj0j7Utt6gp1npDaT1vbxrMT41XQFqHOKkpgTgldRNRb5NGrrKVa6n36Cu7Eyj6uqK3Cdla4kntVq7iqoItS6xJbZQayuoJ4hkQWs0KzYEE0Bpi50qog5YsPMldlKqDrEdjyLXY54HCUjWbHpxZmaAlwkUH2UxNx30kotZ4tQ1YgtWqyOLtqZ1I8V3Ly2rgBVZiiJec85ZfQUyekgtiPEigblzE/0sZq7DdYVOCpnK4k9z7suXmCQSDNAaxOzhPLlEc7U6AhWtrP6RE0BvK3dKmJOXu9TRYi0AbHVZqETQDauklGs9O4lLk0Bgq9xvZTEHM8ityK2aLFqGqx9JTI+gZU/oJmuALW7K0nshcR2nFgNiGZErJs10BdTSVeQ+8tSNasJrWVmC9UOJOMv7s2amBodrilAfqtZWnU8ra3PQkeTTNMZrJF9S3QFOKGTToXQWk2x1ieYEzqzZh40T1eAsDhtSgat7S/UKBe55FfPYu10J47TFfjLP1STOhHbisMQ6gAQi7+4A2vptDZ+TQGqDdWjLrQ2goWurUM9deLIHVhb49fVFaDo2o+hQ4+mte2FikojlbwY1tr2i0VGV+A6K11/wmjt0UJ1hg7dThe80QWsuc7qczUFmLqcLR7dyaO1hkKVV8fLDEP7HCUprMHpxZmaAkzpozepDlqbIVQ5Mhl/CGvysVV0BajSX2c6gdQm+kRK9WtRT9X1BkZvwxrdbY6uILNmlL60orUqLHJnUEjy1DbZrNVJkV5NAbyt3bpSk9aKhSqvkJd5Dm24hwDOYazd3UtcmgIEt9CUZrTWSqhyBmxfAfR8UDldAWYP0xHPAlrrJFKU34DdwyAxrzNfV+D/Zan6sQdobZpID4SJxc5lTAnXFCD/g326kUhrhSzy7kasjXFiTi/RFWDete+XZhTT2vlClRixexgp5mu112RdAcLitKIOrVUWaqYRa6MTs9zyY44J0RX4L18npz4k+WktUqTUTNo7rmpwHwVwxBV08GsKUG0jbTgItNZTpBagvIxQAKi/h/yYu2+vK0BRc03oSGyDRKpOeNnRaVhJf3Gy/JivcR8zdQWuV+6gBavRWmaESE106YVOh/FwNxqHVZhf3SM/djeaqymA99Ye9bnzaW0Ki1xHl3oajkPGY1Ue1UN+zI9tnKkpwPw+ytsZtFZOqHo0N6zEhVXftL/8mFfox/m6Akxqq7jWxBYq0khQXGqkF2U1p022/Jivej0a6AoclR+rtHWJrVikFmo5mQi6jUZZH5vokx97nnvTvJoCDLmxW12eIcS2hkh701u76QjQOgnyY05u4tIUIPgat0NZnUBsG4lU3ph9U4WlnOtAALtKUuTH3LycrgA/OkVRu1JbC5HuSGvO6hMRCBdER8iP+YUOR6GuwF++QElVqK2tSJO16fqGoNvTjBUCad0YBbBz1zRNAfKvuC8+9fT2E5vLKdJcQos/CYF4zeHyY04J1RVgk07KaQhiq8cCR0Gbempfh+JcBGpHSZz8mK91u47RFSAsXTGVqa2uSBn6dH3Ny4oNQaCvF+mUH89KDNEV+L+HUynzqa1IpB5ENnAhhAxeR37MSbvlagowtqVCdga1zRZpfxLLCIWw9ZvLj3nCSboCFB2ujBrkdpZIrQksKjocAvuLk+XH/N3r6gpcr9xBEfPI7UyRllSBvHyJhRA8v7pHfuxuNFFTgAWtPSpoC3J7tEjbUVencpDg+nvKjzn7TIemAPPXUcDu9LaPSLVpq28tF6ToqjVMfsy/bzldARZP3eOl9ye4yG11kZpRVlKkF9Kc2iZbfswDR+sKHKc9VnK8MbntL9JkwurWAFIdm+iTH2d9oxxNAYYc4JYbr0dtPUWaY9AqKeDYKpBunQT5MSc3cWkKEJwgN+dsYussUghRpRdnQsKOkhT5MR+9lq4As4fJjHtPprUeIoWTlLP6XEh6QXSB/Jh7FuoK/OULJMajxpLaIQJlwaDtJrdueZB4cDcFcMG+fk0BxsVIjAdMpbR+AnUwapVkFr8aJF+7ufyYU9bVFeCoeHlxTxehxQvU3ajtJq8ObfyQfm6FOPkx36iqrsBVOVVavJROhLbiMAQappo4o+NOHAcl5lfPkh+7u4RoCpDfRVru1ehsglmwyzFQ5gmd5cecVClTU4DjHy8pnpZHZt3Ngb4lUOrpM+TH3KuKriB3aZPccuIdvFQ2SqC+dBQVHQ7F+ot7y4/56rdjsKYAx/SXE/d0EVlf+vPFLBooKHhErFt+7G7k1RTkHuiWEi+pApGNEagXESXUgaLrJMiPOXuJZXDpCXDU46XkOZLG+hNf9woOKNsVOkZ+zDOO1xSEbyEjHllIYh0FGkZAzupeKH3BxhHyYx5aTU+A81IlxC96PlwUliFQOv10mwPlT0n0yY+z1gjXE8zfWUK8G4XFC+Sknua1oYVVdpYf8+s20RNkLmeLTz7OcgS2g0CcRjrpxZnQREdJivyY/4h5WgLUTpUOz5hLX4eIlE84zupDoJFDIgvkxzx0nJZg0UDFS4dj6Os4kSrRTfvFIgPNPOFQBXBEG7+OIOddpcOfi7yGirSQauLXhYbWX7675Md8clMdAX73WbKJyqOuLiKNp5lpjf3QUn+FOPkx32imjqB2hGS4hYO4YkWqTzHuxEJoa351j/zY/fHmaggWxkmGaxJXa5FqKeY/NwQ91oLWbtJZfsxJPydTPzDicMmk5tHW0iaJ1JhchpW4oLuhbeXH3PZ8/YD3XeTCezpIq41IvYglNToHGuwvzpYf8xFztAOZq8uFi0mrgkiJpOK7YtPGQpOrxbrlx56uXt0AdpVLxEzKChOpPaUMaAaNLtdJfsy9m7h0A5etklS4hYOwjhdpBzqZUMEBrXaFrjgM+TH3L6cbuK1U+DTCyhMpjkwyJkK7FwxSAPM/W6gZqOWWSfo4uporks+vTUNVFwMNj1ECO5euS5peoOl1nEUi3IquECEQB2vT9c0K5pd9Pq+sF1jNLRHf4omhq2EirWb9wTx8slYgzC0PHuQnq3YiFVuD8KzvG6ITCJ0lD74HWXUW6QBtGmpqMEeUz9UIlEgkaTBVfT2RBqrllUS6vsnBPOFZZ0YjUFke3JOqHi1Sf20aanowX+N21dUH7CYPrkJUJSK505SSbm6xu9VEbcDu8tjZQVPni8SbKOWVTC7mpDaZuuDaXxpcQlOVhNpcKemmF3PfZ0k2TYD/gdIYtYCkMp0iRVqZMB/RQA8wMV4WvJROJIW2Ig20OmHPtl4twPyYLElkjyCpg0SKsz5hTv6UWgCcJgneiaT2FomnWKEw9y+nBegqCc8mFNVGqKZWKcyHFuqAv4cceH+KaipUDSsV9uyTpj4UDpODex5B1RVqL2sV5vRa6sP4AinwwQTlSBIpzmW1wnx0VeWhRA6+OvSEfiLxJlYsPCsmRHWIlQK3JKj9hVrPmoU5YkkVMhWXdqwUuA491RCqi3UL84T6asMJUVLoTE+hQo2ydmHuNFhpqCAFLkdOwUJxXS1qaeqwe92JKsNGUoghJ1eyUOdq0VBzh/mxxQ6FDeklA3ceNeEgoVppUUuzh7nvX6YunO+RAMeS0z5CjXTo0FDzh/lLjVUWdpVBRCE11RKKi6xk2F09XFX+HSTAy5hCTXli1bCWYc7eyqUm1PFIIHkuMbmmCdVJh/5ZEpugAObm89SE3SXAjYkJuwjlLtQg98fLJLDdivorgHmvECUt6C+BMZnEdAeh+FwNYs6uTGDAcxXhhgpg565pCsLWPvH4DGIKEytGi5iH1SEw+G/slh9z+rPNnYKwtwQ6E1O+T6je4XrEvEs+fQGFPRTA3C9YPfVSxHPn0RJ2EIrDdIk9jRz0BUzqrgB2dxmiGpwrHu9DTAeItY02MSc/5zIQGHDbVPkxFzw6UzGOTuJNm0pLm4uV6lXDV5AC86ATCAw5/4JbfszdL5YYtaCcTzg+l5ZGiMUnqmGYJNjXMIe+gAY3UgBzpzlKwWHiHUtLyBCrjxriZcHsXEhgwMVTE6cAdj/ftixQydgo4biIlnYSy5mvhA+SB3PKkQQGVw2n/JijznGoA5uJV52WSsTirZSwjkyYE6rRF3AhCT0VwPyPv4U6wtsKF+cnpUKfWC2UUEMu7P6z0+gLOGEHBTAPzFcFmgjH55ES2onFVVVQVTLMqZcpA4EBZ01TAEcskW+qyGwu3MG0tLFgu6sAbtkwjzqfwODYNUt+zAcNUQNChXPmk1IzwTrkqKCXfJgfWEhfwGceqABOn6MG17Gi8b1IKTNdLC5RQWsZsSc2k76AohX6IT+OOF4JaCpcJ1JCjGAtVJAvJebscwkM+HeipMeei2VOCUgQjTchpc8lGFdVANrKibnjZAKD/wC37Djr6SabEo4UrgYpVfMJ1lUFFWTF/ImfUgJ9AYU9ZMdR1VSAI0QbTkroJFhUvgKQLi12ruGgL2DNFMnxsEwVhInGeaTURjDeTAXryYs5+X8jMOCyVYiQG2+hAkdz0e5BSnVFSwlXAFIkxrx8dwUTGPxfzy01fqapUgAqiDaAlLCzYFxBBev7ZMa+notIoC9g8ACppaggZ6Rgvgak9GjR4h0KQCOpMTujXfQF1E6RGN9WAVhKJ8H4HFI6QTQOU0HmMLkxv+2RBAZX+QJ5pbsUkJ8tWAIpYQfROqkA3/GGkmMePp++gN9rL2nxJ1EAbiWYexwpRYvGa6oA7+OUHbtj0ugLmNlcVv1VMFkwLiGlxSIjXIIS8Pd6ZMccdakyERjwjuly4v9BAThEsC6khHai8WpKwE9MlR7zqGeeGQKDY9csKa2hgnMFS88kpTsL186lBMw/WX7MPULoC7iwVIfKaIwKpk4Ti8uRUohTNL6jGjB3FwWw54m59AUUnSIfjwrwRMGiSQl7Cbd8d2WqAXj23KXKjzn7OYtAYECTbNlwVRUcI1gnWgoTjrdTBfIPVQBzxmQCQ+4BHsk8WgVIEMsdQkr+dOFmpKkCGJ+hAOYXvVwX9oG+gGoJcumjhEuVQSyuRUp4onBcXh3Av5asAM6qnklfwPgxMumkhHynWLG0VCRedjWFYMETPfJjTv9jCAy4XOWS5BGvBBwqVnNawgDhOFElwJRPrADmFR5XMIHh3T94liyGqaFELN84Wqosnm+6UoDj+yuAfX0u5BN9Ae8zSBJxavAmCcV3pKWcdOF4gEMtcJyZKj/mgs1c9AWExUkhXQ2IEWt3WkJr8biJYgDvjd3yY47bnsCAuzq16Y5iHUtMeT7xJgxRDRD8QQpg/qBFR0RgmNtHl8KzhXIPoSV0Fo93Ug/wW76tAti9fzh9AVUP1yMcLBSvRkznScA3W0HIbZwkP+aI8gQGbHdDLfpcYi1jCjFljhGPZ0xVEBBysAKY+x5PYHB1dWtQoU+ozsSEcyTA+ygJmDlcAcwjCQzoo0EYIFS6i5i80yTgLqcm4I7pChCRYlrqULRQPIeYsKsE+Gi/ouCv4bSWqSNWKDUVRkiAl6mTqoCxh1rJuLoLFUlNiJWBe2tlAX/fCo/LKgaJQh1HTnU9EuBh+eqCa7tka5jKQiW7qAkHy4APVhgwdXeP9UueUJxHTnWkwJVVBswfaPWC7kKFkRMGSiEqWGnAmn2tXTYSqjw9lZMCt/OrDZmXW6VU65YzhUqkJxwqBY5VHDCkkduapapQAwiqyCcF3kp1QPA1b4cViytOpFQHPWEvOTinKw+onWLG7KVH6CYSNyCoqm4p8IRq6oO/fIH50lKTooU6iaAQIwc+wq8+IL+LlUqYUOdQ1Ey3HLirDgBH/RSTZS9NGi3U16Mo7C0JrqwFQK0OpkpLTUKcSO1JqlqUJDy3m68FyOnotD5pL1IGSaGGJJhn1NMCoNo6ptgrKWU5W0RyOkgqZ8VhyIIPCdcDYHy8lUktkXgsSaGJNLinQxPg+iR3N0f20qWqQjWjKccAaXB1XQAWtPaYIS11KcctUi2awiR58G7aANR9oLn1WZSCviLtS1ToKQ8+Ux+A2cNMj720aReRYqlq0UBFyYO30gg4KjzWSiRWpEOpCvtKxFdLI4B6sW6zKk4tu4k0gKz8g+TBvpvpBBB8iDVImEi9yArn++TB7tW0AvjuE6w/FooUQVdoJRH2hOoF0qKd1h5TRWIvXeXHSYR9SxROL4D8dZWQMVG/FgyiEiSLNJiuUEEmzJergmYA6++hAJ5QIVOvXKG9mEwOF2k8YTlaSIXb6AZc202TH3OncjpVdAQLadQOEqkpYWFwtlR4WZt0A8hZ2iSn/NgXM1qXxq7rY0rpItLnoiwUy4WvvC9+3QDG9pEfc2p0jg75i7NZVKPWWqTGpOXYUy7cYqJ2AOev0A/5MbcN1Z+m/Vlco7akCiLVIC3MyZYLz5ivH3BVzpYf8yHj9WaTziyyUSsR6Q60hZqS4dd9+tjoB7CgtVt+7E4s1Jf86h7Wh+vrU22RDiAu10DJcMGHaAiQd5z8mLOj0/TE33gaCy6ZvfSpmUitiAsNsiXD3NqlIcCRfeXHnBGqI/X3YOGN2jyRGlIXzpUOv9jpmKgj8O+WJD/mQ0/QjbxuLEGjVlekzuSFw6TDL9VfJ+gIkL/3LPmxMzZEJ4ZEFjDdFIr0QPryxkuHHxqmJcAJh8iPOb04UxccJSksR8lcX58WiLQzfaHIKR3mn+HXEuC8kfJjbl5bD6rszLKUzF765HILtAeBYTcJcfPBegJ/+QL5MXcbrL4piT4mHmQL1JzCXJ0lxBGb6wlQracCOGLjBWpbRFB0EktUMtfXqBSB4ikMIRMkxNxzqp4ART9FfszdKzjU5Qodw1K1UsKaHhnxsKM0Ba4myfJjTqijqjoJLFmCyaAxVJISz7pxmp4AU++QJT/2xSwaKBWNiHUz+XUkMmwkJeYVn0+RpgBThsqPOTU6XDX+4t4sX4LpT2ULjpYTz6qepilAlf7yY55xulqazmAZE8wYKkODdDkxT/jLdAWOz5UtP+aD5qnjmF1YzgTTi8ww2yMp5nXGaQow5Pk2ySM/dieOU0N+9Sw2CzLoDI+WFhe0ydQUIK+9/JintfHLL7dCHEvbsI0UaAdCc/WUFnP/croCrNZdfszNa8vuyB1Y4vpwsmqiBOpEaJjaSV7MMeN0Bf4lVYqQH3O3YJnldWOpGzWHT6A9KQ0hHSXG13GWNdI0Bchf3Sc/dlafK6sF0QVMUV4WeCCpYZNpEmOO21xXgE06yY85vThTRo6SFJa9UasmUktawySnzJh3PkZXgPNOlh/zsVXkUyeB5W/UgkWKITacKzeedeWmhOgK/BsWyI+52xy5jE30sQKXVMGgFYmUSG1YxhS5MUe0ydUUoNr+CuCkSK88prbJZiVKpqc+TRKpEbm5/gTJMT/+Z+oKUO4U+TEPq+WSg6tWX1bkNzVoTUW6A7mhq/SYr3E76uoKXGely4+5UzkZrL8nK7OSXK6vT5VF2pDcXL0UwO7VJ2oKsOAOHvmxL7FQtJDqHqauR4t0GrkVsRqzf5lDU4D5Q+XHHBUdLpK/uDer9JsatANEOp3cNlYEc//pugIsnpj+8mNeoR+h4tRvzmo1aj1FmkRuOyiDufNYXYHjc2XLj3mXyWIsFpmBrFqjliDSZGqbzyr17JOjKcCQ510Xt/zYnRgS+OpFOpnIxog0hdrWUwpz9rkuTQGC95Qfc4c2/sCVWyGOFSyZntrkihAph9qGKoY5Y7yuAPX7yo85fvvAtOZwVrJBq8cCp4LY/NnKYW5ZqCvw7xYhP+b2mwSWvBhWtEFbS6R4aluTVexczpY0TQHyV/fJj53V5waGBdERTGqbi3QctfVSEvPJTXUFOOpY+TGnF2cGlOPcFFa3PrzMc6hlKZ1EakVt7RTFfGxVXQHOiJMfc7vzA6ZOAqvcoCWKtDGx5buVxbN+YIiuIOeuBfJj7tag7I1N9DG9HSLSbYntdFZ5RJtMTQHGHqwATo30lp2cNtmseIOWLlJTYuuqNOa3/RBdAeos313yYx5V4ioLTfuz8o1ZCIt8FLHtoTjmIwbrClxNkuXH3KncqjmqB2ugMWsmVAitjfMpj93Pu2leTQEWRHrkx+7EwlUyrpGbdbCNITtNpCgXrZ3OOphd06EpQF5n+TFHRaetlL84mfXQmMWKtDNobQ0tYO7fTFeANfvLjzkjtIz6e7AuGrMBIm1EbEdoAvPA0bqC3NveXX7Mxx0T3If10ZD5I0Ra2iRaS4vQBvbsk6MpQL1Yt/zY7WbaO4pFLqG1ZqyTyUsUzqUpQHAP+emlITtNqPG01lgrmIfP0xWg/uNNrm2Fyqe1/TWDuWWhrsDfOMLU6iRSHGgtQzu44GukaQoQspOPZG6nR2kRIrWgtbk+/WCOu0TmdAVYv59Buodceor00q9HIVVY5G1pbWvW01cL1hWgaVv9GuYkkRpCrUdrlTSF3VdqWoiuYBFBbbL1KinS25tEDhJqPK110RXm1MtWIVNTgCmJPo3aZjQgwr7GKy1CJM9UWjtaX5i719YVoE6CLh1bBRDjHnK5nRZNYpGbg9RyC3SG+YjBugJHSYoOpRdnQpR9jVe0UF1obbHIsOa6f4ZXUwBvdIHuOKvPxUrrXIo6egi1Ia1trjvM2TUdmgLkxehN+4VYeZ27tTKmRghVm9aWNkl/mPsfryvAkTvoS/xqWKXJGpeijDNY6EJai9Eh5n+2mq4gt0KcnnQo9oNYVheqI2htuB6xZ41wTQHyq2fphztxHFYlgThShEqkNVeUJjFPW6JwugKc0Fk3DpqHVU0g5VjoCrQ2hTV6+DxdAZrO0Im+JSiLBLKrWItFhta21inmoeN0Bf7i3rqQGh0OktlDqGkOWqugV1zwNfyaAoyIdeuAL2bRQKHs0sdgFnod0FqkZjHfentdAYpaqC9hPMo2fTQWazNi21+oeCUx32ihrsBV0l1t3Ss4QDYDxKpCbEeIVJB5RpyS2P3x5moKsIig6Ah1Oat7EYDkcQILXTCV2IaJtAMwNdqpIuakn5OpKcCURJ+iug1GgJLHxmJd9XqB1nI9IvUEgCnrKIl5TBVdASb1U1G/SQhgETYzVK7+YpUntgYs8rI2lQH89RlKYm4xR1fgKBmpmvTiTNBOFRa7iNiaCXXuSsHxSaKUxO6f4dUUYEhkgUqcsSEIeOqIFSvdQWynC3X8ygDe1m4VMWf/7g5NAYK7qaN9VQRG4vCni7URiO22QhWuAiA4QUnMp9TRFWC1eDXEb4/ASRyhLPZp1BYtktO1ioCLzbZhSmIeWElXfsQNVeDcOA0UtIFgDagtVqS2WLW5xalK4us4S69wHXn62GSwCmMKEWhpYxOfWPGgtr1ESlhVQP66PhUxv9IdteMzH8oqPHYtBGIRvouBeiKLvQ+5HSFSTFkATuikJOY/YrJWOKKdrMAOJS7IbTPj5O0t2HRyGyTS7mUFCEtXEnPPcfrwr70uKzBrWZtyELhJ40wWe2QmuU0QaUkVyhL85Z1K4oIafj3IO5ZV+HeMRmAX4bsYp6MF+3ogt1SRtitbwIjbKYl5wnfXgEUkNfSxApuXQ+CnjEks+GrklsYin1T2gKLmSmK+0UzFub5pASsw+bYOkNLBgmWHk1uhUMcHBFzbJSuJ3c+/K3NV9lvemhXoeZ518kLIaXRxgluwGJBbnlCbBAgwtbVHRcxJlTJVNTqBVXi161EXgiZr3NvKLpEFr0Vv84QaEUDAlIFKYh5TRUn+A9yswGEnQVidS5HcnCzBCobQWzmhpgYYsOaKw1AS855z1LNeKisw6ZxcGLG3ldytWPCeoLcjRXIiMDr+5ccqiT1dvWqp058VOCsxBCJPo4rCJNHuSHBNRRoZKIAhjdwqYu59rksdIQNZhR90DMQmi31Y8N45BHczkdoGEiC4k5KY44sUkfvcm+JhBaY0hegi3NUQ5WeL9vVAcNuJlBFogNopSmJuWaiCs6axAp27pkH3DtaVtVj0xRNDcU1Eah6I4C9foCS+jrMsZ0u47I4ZxCr8XoWQoPJuJ9IEmVVLFW1UJsV9LpGODkxA/udVEnOHJlJ7z56swublIEWi2IlFjwTFbSXSsYELePrY/BQlMf8Rk6XlinayApObuEBXJ2QJdwzJrSdSp8AGPPvcTVMSc88QOb1+HCvQ8zt4IUsRltJJLgfryV4s+gCQ3GXKIFJC4EPON8pSEkeckyufwf1YhYfOhzyVdzstKecTbiuau3QZRGohAFCtpZKYJ3x3yeR0cbMCM6ZDpiTRgkXP9tJcBZE6CQGMz1AS8zXvY6ZMiiNYgamXUyETRuJgHbkHC38r0FxlkfoJAleTGyqJ3avPlUWVUaxAd6O5kKzybqchVXziHUV0TURqLgqwoKtbRcxJu2XKoLAHq/ANZkK6yjtYP/zNWfgEEN12Is0QB5j/iZXE3PZ84fxv4WEFpmwPCdPDvix+E6o7S6RRIgGzJyiJufN8sc7NZgUmNc6FjDsIUMPYLBqoKPGmTaW6MJHixILjzFQlsed5ts0rzk88hVV4cAjkPE2APYzNXiz+7qC62SJlCwbUazVLRczTfqVLjLl9WIUDqkLWHQSoYWiasvieOWTXTCR3pmhA8AAlMf++5QRw7JrFCnzdJpA3McztK4FtQHZHicT54gGrjVQS89DCwNY0jhXojAwHSXSXUSuWYDm6CxYqTwbw13AqiZ2R4YGp7nBWYef5kDotbM8S3BN0N1ao8VIA8hsqiTkuLND8zRv5WIEv0V51IHkRvoZxmdtXBucR3gKhTpIEUBSvJOZrtdcxgaNxBCvwhksUzgVCa8USzHAQHpwinSgN4KxkJfGsLiEB91u+LSvQ8z96IX9K2J5leCYoL06kmhJBzj4eFTFH/JzcgCnswSq8+qXNgQoJoTBFBnGLCCK9eJGWqZNMgLHvoiTmYfUDwL+3mxU4pgrUmE4Grm4sw31BeoeI1EouQLMxSmLes27ZKo5iBT72MzlAbEuqxDJM99LeoSLtIhu4aqYqid1dvWWjSndWoDt2LpRJBkVOKewL2mslUoZ0gAWxbhUxp+6WuWoKD2IV3mghFEoF3niWYbqX+Ja1SaQIl3yAvBZKYu5//ipyvIWHFZhy8XmAUqlgf5biviC+YpE4REbAh6Qoiflq16PByp0WxQosqOEHwRWzFNO91HeWUOvLCbk/J0JJnPU8m+Yto+rhrMKe46BaGmjmlMO+oL5JQp0uKaBeQyUxd3jOhXPNHcgq/CMmQ70iRBuP+SNZiule8gsWal9pAfPilcT8j2exAr/CO0LFFBDeieV4DshvqlCJEgPOmqYkFWatEQ6iW53l2DaN/hAnUiepwb+MKVlGZGAlKJoAilmStWACtBMp2yU1YEQfw9G/GZRt/FbzSOJYhxnQUyQeKzngmSaqv6HIrukAxYySQ1EUS/JImAHVhTpSenCde0PD4F59IlRu9OaksCS7wRRoLFRN+QFTG7mNwQZzoHaDlx/PkvQsNAeaCtVKBcBFArWBAXjbD4HqjZ1/A5ZlLMyBE4Q6Wg1Alb6aF/FzMqH8aUYutyfLsnehSeDPEsmzQBFwFCdp3KwfGAINTDZwjsNYmo1hEmCFfojEzVQBeF9gV2bpWruq0EID59qWpdncbxp0FqpYHUBwJy2L2xyaqHPDROvF8qwN02B3oRJVAlxi4eK0y1nDD12cJsCPNAhLm8TyvMqhwTw4TajmaoG/hlOvGo6DPhq28izPqEomQjmhfOPUAuT31KiM8dBJo9aGJXoOTASvTyQ+XTXA5MM1KftcF+jvQJbocL+ZgLZCVVcPUCtZgzxdvdBMQ+banSXqLgdToaVQ/VQE/xoe3dllNLRThAO1z7ETy7QrzIUDhXLnqwgYu4vW9D8eGqq8d1WQvwvLdNhEkyFMKD5PTUCzMdqSfedMEMTB6vF2ZqmeBJNhvli7qwquS5fhsVri3tYLPTVcI45lqe4EswEpQjVXFjD167n14yvWha4arcUis+IwWKrd65kPhwrFg9UFNEjQjAmzoa1VnMbq+HSW60kwHw4Uq6bKgIvPtziNKPimudDVKS9yPFhEybyrWkoKWK6rw4S4eObE6qw2OJZUoUATZsWEQFen3sHD6jtYJZmRLNn+E82IfJ9QBV61AUP29+nADsdAV11npbOgknlXheS3Z8m6q8CMwOFC8RmqA2YOUl56LWhr0e/Mwura5Bks2wNhTqwuViP1AaEdlOZc2iQ/dHXERiywpoVGsWwH+E2K08SKy9UA+NfwqOvQQuiq/+c8lA1WWnUfyzY7GCbFJmLxbB0AnnJEhyoqvgja+mzZFsdib6xhDRJYviUwK1wpYu2kB8B/0V9B2Vu5oKsnJLDoB+rXHaexfPeGaYGNxOrg1wSgSbZi3Nt6oav1Vp/FRiu8Oks43mtiVBCL19UG5HT1qOQat6MBdDW3ZipLcGPNKhrEEk6tChMjWLArNk0fgPktlPGHPkuyQVvXXLF/WIp65T8wi2XcBGYGRomVnaMRwOKJmaCEx9Z0QFfzdmFJatUx7VjKz7ctMDcSxeITtQKub1ogPfcL7tpE6OqC1h42Go8PuNw2TpbyIWkmx4mCbaAXwILEWXLrNxO66lqicDdkeUomRqRhAVbUjuU8cgpMjhC3WL48zQDeZ2eJxX0+aGudU1im+vD4AJrb1cNyztoaZgc6icW7agdwXpykrvN9NvZDV8cOZblK5l2l1XQYy7omzI+FgqX49QO5Gztl1GccdDUn2skGpW9A1O3M0t4bJsjxgvF5GgLUayid5pOhrWG/GUtXMjEiPb7szY0sYGkf5DdDMuME66YlwNNHZoXHJZVpnw3aetTRLOH3l8u7itS3bPkrpLC824bADMHegvmC9QQ4K1kant3Doav5rXysPTHyCYtniScvFhmYI+cJxl11Bf7WHjkcNB+66q9UwHLWm3J7ssydR8IkyYkS7OU/T76uAH/sQAn0Oh/aevHMpbCsl6mTXN5VLvNifCxzXxOYJegpGFfSF6DKMMHufpoLuhqcwPK+nE7aMi/Gx3KvAfOkRLS+uRoDrJcqkPt9F0BXhxzgZolvril11mHZt3KZKEMKBOPNtQaLCNrCLUqnOdDVzMtWLoqlfqRcXvjQROq1SlzbH8fS7+OHiYKWonXSG6DBACG6/43Q1q17seTnyaWzSGNWLq1k+e5i+ScsgKlyomh8kuYAtUcGuohzMqGr8/uw7N3hcjlOpLYrNa7NBFbg0fVgrniTREvQHjge7QxU7i5zoatTl7PFw9L/bSDXPUX6xwG41ty/gFXYsRAmCxqKxrO1B1iwfyC69uNZCF11ndWBFfgukjlEpP4obJPBahw2GKZLqHAtNAioukcg+c/PgLaOj2cllpfMsSKNbOhkRaYEw3wJ7yAar6lDwHPk27RA4FwrzQLQ1WpDWZEhkvkpIqkzbiFMGMQK10KPkLusSVkB1XkcdNVf/qGsyI6QbH8NmlYEU6accFxbj4DP3NMdEHtWhba+43/Oyqwhm5d+PfozrQjmjCteuH4OTQLyG2aVJfdxwdDWTTqxOj1DZHN37elQByYNHi0cN9EmwLHdAPeqa7u0SSHQ1vzVfazQ7wvZenQnbh5Mm/ke4Ybl6BOAzGefu9WHJ3tWwpO9w+qh9aCvuZetQiqr1P3UPslmAWtuyjEwb9BNOC6vVSvrnT8uF5r7Id1Zrd8Lsq2mOaOCYeY0FS+7UMP0N28XVmzqXyqdqnrTPw+mTmZf4Xg9cvK+hZtVGwrpVtGafoUwd1BDvB38tOQ48+6s3IGQ74k60ykfZs+ULOH4HFIaH8/qnVBakITuoTGHToXpg6scmnipDeho0UANZAVnP+VIQcI76UsrP0yg88Xjg6loai8PK9h5AmR8tculK75oGGWDgwHi8bo0FJbOKo6aCSl31JSsrWASNZHAmAUEtP6nZSVPyIecb6gnyfVhFqWNFI+XMYV8Chuymg/yQ85+n5as0I+ZMI1QQwLO9WnHX/6hrOSITwlZb8I62mIcTKSQVPF4j3DKCTuZ1bzBHwxph+nITn6YSegqAd6HboJfjdU87HxIvI1+ZDWGwTY+850ScE8imvxWs1jJSd/UBZnvrx1x9WE24TAJcFsvxTgqp7KS3V1yIPc9dKNdA5hPk30S4EYEs3VfVvOxDSD7x2pGYg5MKLzwscmAV6OW+X1YzenrQvohrJVJlWHEjdBRPhmMHEsqC1p7WMkFCx2Q/2ytiJ8HkwpDZcAJfjpxvfLrspr/hIlQ4RVU0omGc2FaHeWTAfcikzqnsJrjN4EaD9WHpNNg1A0RWkrBF0Yj1YaympOfM9+gyhRt2GEyTK2jfDLgDnMIJOevcrKSs3plQpVzWRN91dNgbmF/KXC/HPLYPJ3VfNx3hDq31oS+W8PIG6Q8pxR4W+J4+tjswGruXwSVnqMHiUNgfmFbOfCZlJH/wT5W8t3PhFp30YGUMBh8ozQiVQ6e1cjC/3MKWMnuvdOgVle2BsTkwxzDrnLg5JlEMXsCq/mBF/EJqp3Jyu8eBuNvmLwT5MBtx1FE8B/Iak6pD/XeVnW+xHyYZ9hKEtwijRyG3NjNSo44xwUFH6y4+K1BgsapNKCdJHgjFy04Kmezkt3f1wslpyst6dF+mGs4UhYcTQpVxrCaO/1UqHkwq3yvOaBCA4WWsuBiOpjSh9UctxpUfabCOq4GOjRSdSNk4TuNCKa29rCSncuakgllt1dW1GZpMOUQLQv23IwCXGels5pbzoW60woU5Y4ZDVI0VGnxsmDnScavqDmrOWMyVD6b1bzLUSBGQ4Xa0uDU6QZvxEas5uRaUHtXJQ1aF+RorNBTGtyhyMj5r6CDk5V8HWfZNReKH6agvhVyYfJVipIGJ5czbmFxrOYWIVD904wVKzelph8UabCwrzw4ak2DdsyxrOaORVD/hqqJK78ANGm0/IfLg6OONGL5rWaxkrOXKBx0cJBa4qLngiqNFsp55MEFZxiu3F+Wykp27xQOHWzAKo2Lngi6NFxoLRF2nm6w1nw8q7nF3wI93E0hM87MAWUar0UEZUiEnU2MVN4GrOZRVaCLeyijX0kuaNN44Xi3RJgjXUZpQWs3KzmisQu6OJrV6OtcH+RpwNBVKtzKb4hclbNZye4uXujjWqkqyH5iMAjUiE3tKBVuP9cA1TmF1Tw8DzpZjuWfUTwRJGrEsHhifFLho+cbnfn/Cav51rWhl11l5+wWmgkiNWR4olx4xWEcY2hyNnaykgs2c0Avw9PlltGmEHRqzMKHy4WTSgxMWDqrea+50M3tWOLZrSa5QKnGDItFJkkuzLF+g3LUp2U1x0+GfvaQlrtFBS+I1aDhzrLhHoVGJD/Rx0pOrgUNDfbJyZdQXA30atRcLWXDw+oYDn/5AlZy1lv4oaN3YBkPis4DyRo1hKTIhiOaGIw/J4XVfGgItDR3gnQ8PRoPBtUaNsx2y4Y5pp6B2KQTqzmjCJp6R5Zr1MFNQkC4xg1ryIf7lzMKQ/4/Nys5+1xo654ymRHbNA20a+Bye8iHs6IzjYDjtMeykt2x4dDWIpZlyv6Vx4J+DRwKR8mHOWGw/k1qy2ruVAkau40URsYUF7lAwkYO050S4mm1NG/+oazmYc8yNdDZBlmieQYlVljoAhkbOhTLiHmdShrn7ephJadu6IDWVmfBD58IWjZ2SJQSR7VxaJrrlTuwkn3f1wu9rZct2pIqwJok51gpMbfYRMuKDmc17zwYursvC+5rYFWCvGQ5cUR5v3ZV68NqTqkN7c2ZINoDYV2C2VlyYo7fXq/838PJSnZGZ0J/z2HRb2ttgtNkxdx+E426WTor2Tc0BBrsHSlaVojVCXaXFhdEejWpziBWc/OZ0OLyLPo6sD5xDJUW84QKmRoUvAuredoSyw16PDFduO2sUOAdLi/mdtvrTn4jNys5a1c/NLkGix4x0RoFY0dJjDmhvs7kL2eLk9X8iQuhy/WShdsfVimokyoz5l3K6Up+64eymjOKoM+7svBHWqlge6fUmPusryP5rQtYzdmVodHzU4Wb4bBWQS233JhbNHVpxvzf08lq9tw4Bzq9DQt/D1it4EzZMQ8v8WtEUU83KzphNLT6eJ9wWdWsWLCx9JhXHEZjrx44mrZjVQ+rAr12DGDhe8KaBbHyY562+ybqK1xap3RWdWpNBzS7Mou/vXWLYxsFMPOAClNV5qjf2c2q9nWZCN32ThBvWKZ1C9I6K4E5vfUJqprzjV72tbC6O9WFfi9nC4tfA1YuWIRhoBqYec/1QtST3+Qr+ljdJ/890PDJTvGcI4jqkYSAtD6qYPa0qDBRJfVKrnY93KxwZ3QuNNyRwOK3AlH9SZSAnOOUwcwRB4fmqGH+ei08rPRt8qHljVmCa1GVhaU3KSDnOIUwc1L74tGScxQtbUo8K37QMdDz0dkS2ABUZQF70AKmbqCUMo+OPD9TVnOaXPl43JBVnx4KXR/IEjyDrP4tYsDUDVTDzOkHFx+VKZtqoa1uzerP2tUPXS9hCWY4yOoR1ICcluops/c6bY73S2Li1pX2imMt7FYIbS+Mk0FNkJUFaE8O8F+xaUoqM/WIJ1Ze3y9Y2P/177pZEzPqQN9d67AEO3jp6rejBzi6qmolnTuvXrP+aIcIC4662VI6NezAupj9Z7ig8TVZhhuDrkqBjQgCWNokla10QfOh+6xX/4SJgcIx4qiLZ674Vsf1ZZ30PO+6TIXOz0ySQVQIYZWG1CAJFPtUt/JJM1r07LrHpcvQJHT29KKLhmpEvZUtzCvaet2zKuwW3ajbgO4e1s+rXY/50Pq0fizDO4Cw3pkm0CRLE7R82LMkGzR/d5ZhxAjKskCKEgXqJxNNxGaZ0PzZPim0BmW9B1Wg6hiKmXXFps2F7ldLYRlGVCOtNyILFA6gl+Ezof3+PVmKTwRpWVwkpwss2ItYXuk8GMADWIrO0bR1NmHAFU0pBQv9MIAlLMfn2xbQ1paUAZzppBLfNvkwgpNT5ZBdSFz2e5IGpqfQSPMvB0NYryPLMRrUdRfawNgEAkmuDGOYeSjL8WWew0teFuAmcSCtEXV4dg+HQezKkrwXyMsCnKQOoIKTNN5lPoxiY5bkDD99fSh9oGjFYdBF22YwjBfPnEcWNwN9lRJYTiAoHEgU2Z/EBcNYFMWS7OQiMAswgULgKnYShHtvL4zjnJEsSV8VENj7kQhQpyM5/JtzYCDzm7Msu4DCSoGNiAQTu9DCsEkwkhM7sSyzx5LYZ6QSoCSKDiIur0ImjGTOQSzNDUFiF/z/y0InWCwy7YhgVqshMJT+dViaGWk09hSjHZdQkNvGSQE7L4SxzNyG5XkSaOwGFiBAKMAxxxq+k8+DwXStzvLsCSKz34VU4G/jNHQF0WkwmI5GLM+kBmT2JrQC1DncwLUcB6OZuTdLdEOQmQVYTy3IiXQatOW7ax4Mpz+GJbqzn85KQyaSCxC8ixHrXdkFw5m2F0s06xliBTr7hQQDV0mc0fLsEw7juaA9y/RAENqPpxggP9ZnqAaOhgEdcgTLND6c0j4NzQBbxxunjHIwohcJ1HCWqbsZKO3+VAN/8TRjlP2ZHDCia41iqXYFqdkfRjVAfvUs4+PeYiIM6UnZLNX+XmKzQC7QDRDcx+j0uGioYEwrO1mq7iogtm9HOUD9HYxM39owpq47sGSXNgnUVtr7RtAO/GdOMCxZlyocjOmCGJZsJz+5lRJsSjxAWoUUg8KcmGNE8q7dDpZsVDDI7VOTD+BtM82g8IBFA2U8VuvAst0K9HY2AQH50b2NCcdtbTBcbdws271AcPbrURBQuE+2IWFnsctI5Hdm6U4IIbnfkYaAicUTjAhztxDjUKc/SzdrEkiuNL5ZVASkVehlRHhkbYPgKnayfNuA5koDHegI8D/X0g0yIOyr7jcC83uwhLu5iO61KAlwrNvZZziYD6mrfzfrwBLuXw9E98a0BCAvMt1wcFKbTL3zxrKMC4pAdfZ7UxPgrXC00WDeM0/njpzBUq4Auvub6AlwHdnQaTA4tXGmrtXb28dSTgThfSeKAlCvQjtjwZxwgp7dLIXl3Cmc8kqx1iQqAItFJjLOULCzule/RjRkSU8YC8qzuEhOV0BaaB+ngWDudUfNyrxXb5Z0ahFI79SHERaAISXdnMaBeYOZOrV1P5a1rxZoz/7DaQtAvZJuTsPAzl29ujT4YJZ3NKjvS5MXgPyt+qQaBOb0Nmk6tCA6guV9sIv8jqQwAOH1I+ONAXPHzV26k3nuBJb4gKkgv49JZGUOLm7vNALMA9bUGlfT4SzzGYWgP7sFeE5nALz1I1s49Y+5fRVtcYUdzVIfmQcz4C1JrUxv/cgBbt1jbtFUT+oPYLmnloMp8J3Jrcx629d4kfMRJzu35JgTttcO17oJLHlnbZgDpekrTHIrOees1g9MlVNEp9hLl6HcRUPTS3bMA2r5dSLttOYse992MAl+o3CFW5vsyszMO30pnbZZvrucEkk5rvV2VXNRZl6K9JhTokN0YW7xKJb/kirALLC/OumttL/q5tGJLbqL1XvAlZoWXatoIlZxUbb8mJO+3jE6ULdrFCvwDjAPvq4JsLLhm6xWs3XMA+OzA1NB/wd22ac49PhClNXF061AAcy8wYnhavPfrL2bVVgdJsJHmAerMGd0uTO2arNr171j2icc3b9DmVFlZHeImzFj5wEJnbsccGDjc8+rUrUQAVy7QAnMybHT1RUcOZLVuLrLTHjDB5gPEg19he+jBmbud+d8FU0t2ZNV2coBM8H+o00shHpUwexpUTxOLWlNE7NZmTG5MBe+lpmFJm5lMLOnRXGIKjKnxyazQnvmwmT4KFMLW7kVwszOzjXrys973t4dWKlD/TAbvvnaphZqZSmlzBmxTcMlNrhCtwJW7EZ+mA72dzK3sJ1HNcwctU6bcn4JDQmL7cXq3TsTJoSFMNDkwuZZ6ikz9aqXo8bWUyXSYLttd3Cziru6YEa8h9mF0wuUVGbW8FY1my0QbsH4O2/TnVW9rE0wEVfRf20BPphdqJ+tqpX0DOqyWei8HCFcdU+v0TDDzQrfDCaF/dOZXhifrrKV9o0Z2LXxWc1G+wOHf/CRpy1jSpdDslnx7jvDtCjtSXPzCwtHKW/lfRMGtEzsGt24SVj9oqKiwYMH11u5tGrHbH2zM2tUP+ygMR7WwoKbwbxY5Pd/41Q0vzAnXhfKYsSAo2fMSO+QxNrZoQpMDPtbm2DI31NXtLX7PJgajzTDkLY/qewwH+aGhSSbKQZXJKHsMhcmx6kWyDNTDCj2UMnefpgd9tIkc00y1J5GIp42MCVXzWc0yxAcTyAdZsMMucFtzDLkb0Ae8SfAFLHfxDSDf1viaDkRJklp+iqZZ8B2qYThi3TALHmQBfhioqGoF1lMC4OJuars385MQ/5AomhXF2bKTqYaMpeuk4ciEnNgqjzoYaYasPUEcsg+CybnqrP/xyYbxg0khkEzYbp8RrMNmTWyCMH3xHCYL5ve22wD6mSQQcq6MEHLgv1jmG/wxhJBTD7MGQuYx4QDTk8ngOQKMEfLht0C3jLjUK2P4bvq+ZgP86YUtK8pByyxdNMMXfadXTBxXvUB5hwKexq4Q0fDPC0rdguwy6QDStINWtyJMFPLTinWmqYd6sX6jFhMCEyfLa9n2gFVDjdcbWvDZC079o9h4iFn4wJDFdFxAUwhC2naiiYekNfHQHUbDPO1LNnfydQDms4wSBnbw4wtW/+/yYecGlEGqPc5fphIWz7Y5AOqre42OJ7VC2HSli371zX9gJnrGJr282DalrVF/khSCxAw/4DtjzYsLZrBxC1rdguw3RoArtAMQ9I81AUz6l+1CgD8FUYZjjFNMmHulj37z7cOAHIaTzAUGZX9MHsDoBRrC2sBwF9hmGFYoR8VcmH+BsAtH2w1AKSdueIwDEG/UAfM4ACw/zorAsC/3XDtSzjDBXM4IJ5itOPezZoAwPRuPo1zd2sG0zgg7KU9WWBlABRdsWkFmjZtOVsWDRRM5AD5QV2sDYBxbfpqWMc2Q2AqB4j9v7Q+APzPmbsWepW112oOmMwBcwFGDmsEAMGRcdo0LLISzOeAsVsgh60TgPDtevg0yLnNbAfM6AAq7aGMtQKAutEdNWfnxiEwqQPIbgHPWi8ArumNpmlLxtImbQLzOqA+ypoBQFrTxN4akh473QUzO6DsJ1s3AMg5faNsrRi17eLplgmTO8A2tHoAEF6/+ihNGBQ53QXzO8BOfWsrCACOOsuYcqxPcc72NUfDHA8wuwWsYh1RZmGT/dOVNaj6GRNhmgfcqRbgvNUEgMw6S6rUOVs5w1qVjICpHnD297KmKDO3XPlDpykjPnG9E2C6BwK7BTxgZVGmY7HIbNUq3ie57A02vnjmQmDKB4bvWdH6YiXnbn3OlZoW75ZShx5dT5uXCdM+MNg/0EpjJb3lTms9sLs8suK32XfdSjD5A8UtLEDAimOl640/MfqwTukiOeP77F6zdp4f1oCBwl6aZLHVx8p6Z9beammTEjv3m5AVaLKbb3DFpq1RvPn0BpmwIgwcr2oBvlmJrNKQmc1WO/HMfSNjG8Uc3P6gASvbon37zjExMbG9Nqu5XdMq8xosgFVi4LC/vdWJVWcgsfz4T/i72Fqxn2Rz5b9+DVsr9n/V5or9LW2uWOQv4T1trdj3s7licVeYL2lrxf42Nlfs721z5WM+xNaK/c1srmz6sW2t2D9NF1sr9tvbXLnwzy/ye9pasb+zzRW7BVhhc+VCzGj3trViL01fJZsr9l9tc+XJJaNbgJe2VuwWjxVtrtgtkPk2V36jcIV7PVsr9lKC+R5ga8W+o82VG7y6rRX7p3o7Wyv2Uqw1ba7Yb2xzJcsC3rK1Yr/g/1+WX2RrxV7ak+Y2V+y/wObKgyzARVsr9vUfZmvF/toVba3Yv5PNlSdzVtAvaGvF/pvQivjutlbsP+hhtlbsG3axtWIvxRhgc+XUN7e1Yt+yoa0V+1d6PVsr9gv4TPMkWyv291rb1or9W1a0tWK/g80V+79oc+W//i9trdgvIv8KawFO21qxb/EX2lqxT/mStlbsF5CS7C62Vuy3uI+tFbsFzPMQWyv2Oz3O1or9fr/I1or9C/wiWyv2z/j321qxf5+1ba3YP+IX2Vqx/1m/yNaK/Qu8iq0Veymw4ONsrdg/9dvZWrH/DW9qa8X+GAvwxNaK3SJ/CS3AbVsr9rO/ja0V+xv+QbZW7Ft+Nlsr9lP3s7Vit5cGOnSxtWJ/7VextWL/NNVsrdhf9UfbWrFf93+3tWL/r3e0tWK3/3Z3s7ViL+3+8t7F1op9yqvbWrHfMtXWit3+qde2tWL/k9/N1oo98r1trdhPfcIDbKzY7V/gTW2t2M9+b1sr9lMfsbaNFbv9g/9PWyv2LSzAWlsrdvtOFuCDrRV7uz/I1or9VAtJy3vaWLHbP/7HtrVi3/QJf7+NFbv9FifbWrFv+oh72lix2x9jAY7bWrGfWhpoaAHe2Vix25+cLNZNbK3Y7a/20W2t2A95+19kY8Vu/4nlba3Y7R/XAtywtWK/pYWl9+NsrNjtX+mmD7CxYre/5he0tWK33+/n21qxb/paFuCpjRW7fcuwe9tYsduv+4SH2Vix2+9vASbc08aK3f6V9ns7Gyt2+1fa7+1srNjt99/x7Wys2O3f/BHvb2PFbt/y5h/dxord/l9bWGqdbGPFbrf/ZTexAH9trNjti/z+b5z97mNjxW6/7td5DRsrdrv9L7v9PW2s2O1bhJ1iY8VufzJnBb3T7R9nW8Vut+9683eoaFvFbrdfwGeaHS3AYxsrdrv9L7vpg22s2O03+IjP9jjbKna7/UEfdZMn2Vax2+3/9Z1uem/bKna7fVMLa6FP/+62Vcp8inEkDnudv9+2it1uv+4737SXbZUyv3YpwaalmKve1LZKmZ8q7CYfaVulzIevc+OPXtGmSpm73ukJr3M9myplnvqDSgF1vu59r2dLZaW/9kfd4du9xt1sqazkpo957Tv8rxbg/JNsqKzsV3qPb/nIN3+nj1zbdsrKtpty3JH/1pd+8/u+RrUH2EhZpaeefUH+f7rP8BHfspRAOwukX2mScbcv/5bv0OK1LMCdz3qb29zmNk8KigQ=;" vertex="1" parent="1">
          <mxGeometry x="860" y="192" width="100" height="100" as="geometry" />
        </mxCell>
        <mxCell id="UMffj6f-WVmhNxOPsVtC-6" value="&lt;div&gt;&lt;br&gt;&lt;/div&gt;&lt;div&gt;&lt;br&gt;&lt;/div&gt;&lt;div&gt;&lt;br&gt;&lt;/div&gt;&lt;div&gt;&lt;br&gt;&lt;/div&gt;&lt;div&gt;&lt;br&gt;&lt;/div&gt;&lt;div&gt;&lt;br&gt;&lt;/div&gt;&lt;div&gt;&lt;br&gt;&lt;/div&gt;&lt;div&gt;&lt;br&gt;&lt;/div&gt;&lt;div&gt;&lt;br&gt;&lt;/div&gt;&lt;div&gt;Optimization Tool&lt;/div&gt;" style="aspect=fixed;sketch=0;html=1;dashed=0;whitespace=wrap;fillColor=#2875E2;strokeColor=#ffffff;points=[[0.005,0.63,0],[0.1,0.2,0],[0.9,0.2,0],[0.5,0,0],[0.995,0.63,0],[0.72,0.99,0],[0.5,1,0],[0.28,0.99,0]];shape=mxgraph.kubernetes.icon2;kubernetesLabel=1;prIcon=api" vertex="1" parent="1">
          <mxGeometry x="250" y="188" width="114.58" height="110" as="geometry" />
        </mxCell>
        <mxCell id="UMffj6f-WVmhNxOPsVtC-7" value="AIssistDM Plugin" style="shape=image;verticalLabelPosition=bottom;labelBackgroundColor=#ffffff;verticalAlign=top;aspect=fixed;imageAspect=0;image=data:image/png,iVBORw0KGgoAAAANSUhEUgAAAaoAAAGqCAYAAABajwD2AAAAxXpUWHRSYXcgcHJvZmlsZSB0eXBlIGV4aWYAAHjabVBBEsMgCLz7ij5BAQ0+xyR2pj/o87sKySSZbkZ2sygioX8/7/AaoCRB8qKllhIBqVKpQWg0tBlTlBnNaq7S3Q9ngsAMZktoMU6H7wcOTuNcvhTSzRPrPVHFmPRRyC/i0RFB7F6oeiEmSyQ5nzBRqi7XJ6w93qG2wghbn7Vj8tue/7JgenuGyUSdYSMyizXAY0ngBiGIhE1oeOqMr0Grd4KB/JvTgfADVtRalcmZVe4AAAGEaUNDUElDQyBwcm9maWxlAAB4nH2RPUjDQBzFXz+kIhURi4g4ZKhO1kFFHGsVilAh1AqtOphc+gVNGpIUF0fBteDgx2LVwcVZVwdXQRD8AHF2cFJ0kRL/lxRaxHhw3I939x537wB/o8JUMxgHVM0y0smEkM2tCqFXBDGIfkwgIDFTnxPFFDzH1z18fL2L8Szvc3+OXiVvMsAnEMeZbljEG8Qzm5bOeZ84wkqSQnxOPG7QBYkfuS67/Ma56LCfZ0aMTHqeOEIsFDtY7mBWMlTiaeKoomqU78+6rHDe4qxWaqx1T/7CcF5bWeY6zREksYgliBAgo4YyKrAQo1UjxUSa9hMe/mHHL5JLJlcZjBwLqEKF5PjB/+B3t2ZhatJNCieArhfb/hgFQrtAs27b38e23TwBAs/Aldb2VxvA7Cfp9bYWPQL6toGL67Ym7wGXO8DQky4ZkiMFaPoLBeD9jL4pBwzcAj1rbm+tfZw+ABnqKnUDHBwCY0XKXvd4d3dnb/+eafX3A4Pbcq2IXO2RAAAOW2lUWHRYTUw6Y29tLmFkb2JlLnhtcAAAAAAAPD94cGFja2V0IGJlZ2luPSLvu78iIGlkPSJXNU0wTXBDZWhpSHpyZVN6TlRjemtjOWQiPz4KPHg6eG1wbWV0YSB4bWxuczp4PSJhZG9iZTpuczptZXRhLyIgeDp4bXB0az0iWE1QIENvcmUgNC40LjAtRXhpdjIiPgogPHJkZjpSREYgeG1sbnM6cmRmPSJodHRwOi8vd3d3LnczLm9yZy8xOTk5LzAyLzIyLXJkZi1zeW50YXgtbnMjIj4KICA8cmRmOkRlc2NyaXB0aW9uIHJkZjphYm91dD0iIgogICAgeG1sbnM6eG1wTU09Imh0dHA6Ly9ucy5hZG9iZS5jb20veGFwLzEuMC9tbS8iCiAgICB4bWxuczpzdEV2dD0iaHR0cDovL25zLmFkb2JlLmNvbS94YXAvMS4wL3NUeXBlL1Jlc291cmNlRXZlbnQjIgogICAgeG1sbnM6ZGM9Imh0dHA6Ly9wdXJsLm9yZy9kYy9lbGVtZW50cy8xLjEvIgogICAgeG1sbnM6R0lNUD0iaHR0cDovL3d3dy5naW1wLm9yZy94bXAvIgogICAgeG1sbnM6dGlmZj0iaHR0cDovL25zLmFkb2JlLmNvbS90aWZmLzEuMC8iCiAgICB4bWxuczp4bXA9Imh0dHA6Ly9ucy5hZG9iZS5jb20veGFwLzEuMC8iCiAgIHhtcE1NOkRvY3VtZW50SUQ9ImdpbXA6ZG9jaWQ6Z2ltcDphZWExZDEzYS02ZWViLTQ1NDctOTQ2ZC1kNzExYTY2NGRlZmUiCiAgIHhtcE1NOkluc3RhbmNlSUQ9InhtcC5paWQ6MDhkNGNmOTUtZGIzMi00YzJjLWE1MDItNDRhNjY0YmNhODZmIgogICB4bXBNTTpPcmlnaW5hbERvY3VtZW50SUQ9InhtcC5kaWQ6MTVjMzllOWYtOGY4ZS00MGRkLWE0YjYtZDU4NjA3ODRiNTNlIgogICBkYzpGb3JtYXQ9ImltYWdlL3BuZyIKICAgR0lNUDpBUEk9IjIuMCIKICAgR0lNUDpQbGF0Zm9ybT0iTGludXgiCiAgIEdJTVA6VGltZVN0YW1wPSIxNzEzODA4NTE4ODU1Nzc0IgogICBHSU1QOlZlcnNpb249IjIuMTAuMzQiCiAgIHRpZmY6T3JpZW50YXRpb249IjEiCiAgIHhtcDpDcmVhdG9yVG9vbD0iR0lNUCAyLjEwIgogICB4bXA6TWV0YWRhdGFEYXRlPSIyMDI0OjA0OjIyVDE0OjU1OjE4LTAzOjAwIgogICB4bXA6TW9kaWZ5RGF0ZT0iMjAyNDowNDoyMlQxNDo1NToxOC0wMzowMCI+CiAgIDx4bXBNTTpIaXN0b3J5PgogICAgPHJkZjpTZXE+CiAgICAgPHJkZjpsaQogICAgICBzdEV2dDphY3Rpb249InNhdmVkIgogICAgICBzdEV2dDpjaGFuZ2VkPSIvIgogICAgICBzdEV2dDppbnN0YW5jZUlEPSJ4bXAuaWlkOjYxZmFmOWVlLTYyNWMtNGU2My04M2YzLWM2YmIyN2Y1YmY4MiIKICAgICAgc3RFdnQ6c29mdHdhcmVBZ2VudD0iR2ltcCAyLjEwIChMaW51eCkiCiAgICAgIHN0RXZ0OndoZW49IjIwMjQtMDQtMjJUMTQ6NDk6NDAtMDM6MDAiLz4KICAgICA8cmRmOmxpCiAgICAgIHN0RXZ0OmFjdGlvbj0ic2F2ZWQiCiAgICAgIHN0RXZ0OmNoYW5nZWQ9Ii8iCiAgICAgIHN0RXZ0Omluc3RhbmNlSUQ9InhtcC5paWQ6ODQxN2UxMWYtY2JlNy00YmE1LWEyOWItY2M5M2QyODM5ODU4IgogICAgICBzdEV2dDpzb2Z0d2FyZUFnZW50PSJHaW1wIDIuMTAgKExpbnV4KSIKICAgICAgc3RFdnQ6d2hlbj0iMjAyNC0wNC0yMlQxNDo1NToxOC0wMzowMCIvPgogICAgPC9yZGY6U2VxPgogICA8L3htcE1NOkhpc3Rvcnk+CiAgPC9yZGY6RGVzY3JpcHRpb24+CiA8L3JkZjpSREY+CjwveDp4bXBtZXRhPgogICAgICAgICAgICAgICAgICAgICAgICAgICAgICAgICAgICAgICAgICAgICAgICAgICAgICAgICAgICAgICAgICAgICAgICAgICAgICAgICAgICAgICAgICAgICAgICAgICAgCiAgICAgICAgICAgICAgICAgICAgICAgICAgICAgICAgICAgICAgICAgICAgICAgICAgICAgICAgICAgICAgICAgICAgICAgICAgICAgICAgICAgICAgICAgICAgICAgICAgICAKICAgICAgICAgICAgICAgICAgICAgICAgICAgICAgICAgICAgICAgICAgICAgICAgICAgICAgICAgICAgICAgICAgICAgICAgICAgICAgICAgICAgICAgICAgICAgICAgICAgIAogICAgICAgICAgICAgICAgICAgICAgICAgICAgICAgICAgICAgICAgICAgICAgICAgICAgICAgICAgICAgICAgICAgICAgICAgICAgICAgICAgICAgICAgICAgICAgICAgICAgCiAgICAgICAgICAgICAgICAgICAgICAgICAgICAgICAgICAgICAgICAgICAgICAgICAgICAgICAgICAgICAgICAgICAgICAgICAgICAgICAgICAgICAgICAgICAgICAgICAgICAKICAgICAgICAgICAgICAgICAgICAgICAgICAgICAgICAgICAgICAgICAgICAgICAgICAgICAgICAgICAgICAgICAgICAgICAgICAgICAgICAgICAgICAgICAgICAgICAgICAgIAogICAgICAgICAgICAgICAgICAgICAgICAgICAgICAgICAgICAgICAgICAgICAgICAgICAgICAgICAgICAgICAgICAgICAgICAgICAgICAgICAgICAgICAgICAgICAgICAgICAgCiAgICAgICAgICAgICAgICAgICAgICAgICAgICAgICAgICAgICAgICAgICAgICAgICAgICAgICAgICAgICAgICAgICAgICAgICAgICAgICAgICAgICAgICAgICAgICAgICAgICAKICAgICAgICAgICAgICAgICAgICAgICAgICAgICAgICAgICAgICAgICAgICAgICAgICAgICAgICAgICAgICAgICAgICAgICAgICAgICAgICAgICAgICAgICAgICAgICAgICAgIAogICAgICAgICAgICAgICAgICAgICAgICAgICAgICAgICAgICAgICAgICAgICAgICAgICAgICAgICAgICAgICAgICAgICAgICAgICAgICAgICAgICAgICAgICAgICAgICAgICAgCiAgICAgICAgICAgICAgICAgICAgICAgICAgICAgICAgICAgICAgICAgICAgICAgICAgICAgICAgICAgICAgICAgICAgICAgICAgICAgICAgICAgICAgICAgICAgICAgICAgICAKICAgICAgICAgICAgICAgICAgICAgICAgICAgICAgICAgICAgICAgICAgICAgICAgICAgICAgICAgICAgICAgICAgICAgICAgICAgICAgICAgICAgICAgICAgICAgICAgICAgIAogICAgICAgICAgICAgICAgICAgICAgICAgICAgICAgICAgICAgICAgICAgICAgICAgICAgICAgICAgICAgICAgICAgICAgICAgICAgICAgICAgICAgICAgICAgICAgICAgICAgCiAgICAgICAgICAgICAgICAgICAgICAgICAgICAgICAgICAgICAgICAgICAgICAgICAgICAgICAgICAgICAgICAgICAgICAgICAgICAgICAgICAgICAgICAgICAgICAgICAgICAKICAgICAgICAgICAgICAgICAgICAgICAgICAgICAgICAgICAgICAgICAgICAgICAgICAgICAgICAgICAgICAgICAgICAgICAgICAgICAgICAgICAgICAgICAgICAgICAgICAgIAogICAgICAgICAgICAgICAgICAgICAgICAgICAgICAgICAgICAgICAgICAgICAgICAgICAgICAgICAgICAgICAgICAgICAgICAgICAgICAgICAgICAgICAgICAgICAgICAgICAgCiAgICAgICAgICAgICAgICAgICAgICAgICAgICAgICAgICAgICAgICAgICAgICAgICAgICAgICAgICAgICAgICAgICAgICAgICAgICAgICAgICAgICAgICAgICAgICAgICAgICAKICAgICAgICAgICAgICAgICAgICAgICAgICAgICAgICAgICAgICAgICAgICAgICAgICAgICAgICAgICAgICAgICAgICAgICAgICAgICAgICAgICAgICAgICAgICAgICAgICAgIAogICAgICAgICAgICAgICAgICAgICAgICAgICAgICAgICAgICAgICAgICAgICAgICAgICAgICAgICAgICAgICAgICAgICAgICAgICAgICAgICAgICAgICAgICAgICAgICAgICAgCiAgICAgICAgICAgICAgICAgICAgICAgICAgICAgICAgICAgICAgICAgICAgICAgICAgICAgICAgICAgICAgICAgICAgICAgICAgICAgICAgICAgICAgICAgICAgICAgICAgICAKICAgICAgICAgICAgICAgICAgICAgICAgICAgCjw/eHBhY2tldCBlbmQ9InciPz7ZlW2eAAAABmJLR0QA/wD/AP+gvaeTAAAACXBIWXMAAA7DAAAOwwHHb6hkAAAAB3RJTUUH6AQWETcSyGuF9wAAIABJREFUeNrsnXl4VdXV/z/r3HszhwQSwhjCPM9kYBBERUFAUBEJg+Js+9aho51s7a9ztcPbvn37WttaR8ShrQoBrVarViuDA4IDKILMU4AkZL73rN8fNyhalJvkJvfcZH2eJw+IJ+fes/Y++7vX3muvJRhGG6OgZKEAjqCiIoKqAH5FAkCiQAJoApAABAQSUNKAjip0EtV0FekAkq5ouoikq5IsaDKQCCQ3/G5yw0fK8Xud8DVcoLbhTwWCDf9dJVCnUA1So1ApaIWoVihSgUi5CmWieljgqEINUK9IvUAdaC1QB1IHWqeIiogLqqqouK6uO+9BtV5gtCXETGDEK2NWLhE/9Q4iDuI44PgEX0C1Nh3oIJCuIumoZgCZIFkKnQXtDGQ1/GQCGUAS4DT8yAl/fvLvnPB3OcW7pCf5u37Kj/uJvx//qQDKFEoFKQU9BBwEOQRaqki5iJSDlqNUoFqBUAUSFNRV1ZAg7trZy028DBMqw2hJRj11uSTUVTuC+lQcvyp+lBTB7YpIN0S6oHQFskGzPhIiyQLt1ODx+E4QI+cTwuTVd+GTwnXiTwgoBzkMWgoc/zkAslvQvYruE2QfUKFoUFSDKk7IEX9ozcz7TLwMEyrDaAoFq5YKTiKOe8yn6vpdEb/ipDga6iHoQBVnAKp9gC4neEQdgHTCS3PxJEQtIWTBsIBRdvxH4LCi20XZoiJbBNkBHFO0XpCgIkFQBWXdLPO+DBMqw/iQwpULBHFEcQXwh4XGl4gTSBO3rhfoCIWRwCCgM5Da8JNEeE/ok0t0xscFTE/wvqqBqoafY8AO4E1B3lB4O+yNaQ1IDVAniKvq6jpbNjRMqIz2Rv7KYgdwRNQHpIBkNnhGPYCRqI5CZHCDMCU1eEkBwkt3tHEPqaXF6/ifJwZ41DUI13ZgI8gG4B3gIOhR0GMg9YDrit99xZYMDRMqo016TqsW+1RdH2iCKp1EyAV6gQ4CGdHgMXUlvJeU0OBdOdZHW1XEgkB9g3AdBnkPdBOwpcH72qU4u0GrHCGISmjtrGUmWoYJlRGfjC5ZJD5wHDQgkAySq+gw0MFAf6AfkEt4X+m4MPnMcp7BPUG46oH9wDZga1i45C2BzbjuYRXqXAi+MtvC4g0TKsPzXtMCURyfQkCVVEH6CzoBdCzQl3DwQyfC54+OC5P1wfgSruOBGgdE2Q36hsK/VWQDcMhB6hAJoqprZz1gwmWYUBmxJX9FsYiDCOpTSALpgJCHMhk4DRgAdCQc/HBieLgR3+gJwlV1XLiA14BnROR1VQ6ibhVQr47PXT/TlggNEyqjFSkoWeCA40M1GSEHyAMKgKnAEMKh4smEAyAs8KHtixaEowrrgEpEtqP6IvAS8C4i+xQ56mioHlV37eyHTLQMEyqjBbyn1YtEXNeHaiIiXYGhwPAGgRoB5PBRyLj1q/bNh+migG0ga4H1oBtFdZuKHBMltHb2ctdMZZhQGc2mcOXFDojfdZwMUR2B6ngRGadhoeraIE4J2JKe8dmidRh4F3gTWC/KWkfZ6Tpag+CunWmBGIYJldEocVogiPgUTRbVXBU5HeR0YDDQjfDS3onnmgzjVCjh6MFa4JAo24F/gz6FyJsg5SrUr5v5gHlZhgmVcXLyVy4UwXVEnETQDNDBipwLnE54D+rE9ETWb4zmcDwQ4xhwWGAjsFpFXkTZDVSBG1w3y7wsw4TKAIpWLZAQAR9uqIOI5gkyRtFzgEIgm3BQhIWRGy3lZSkfZsaQt4CnQF8E3hW0FKR27SzbyzKhMtqnB7VqiYjW+0UkW1VGgZ4GTCacIaID4b0n6x9Ga1If9qbYAawF/i2wFmWbiq9q3az7TbBMqIx2IVCrL3dwawKI00PUPQ30dGAs0JvweaeAWcmIMSEa9rKAt0FeAPmHq/q2I84x/Onuuum327KgCZXR1ihYMc+ngc4JuFW5onXTgRmEzzwdX97zm5UMj+E2eFlHP/KyfCvwJa5X1TJHq0IWLWhCZcQ5RasWSMh1fAipom5fRGYA5xLOGJGJhZUb8YE2eFlVwF7geUT+JvC6uqHD4vjq1s60dE0mVEacCdRi8blBJyiS6aoMFtGzGjyoQYSj9/zW9kYce1nVwD7gBdDVIK+IsEddaqx2lgmVEQcUlBQ7DtJRYZSiZwFnED7/dFygDKOteFnHBWst8HfgeUf8O0Ohuvr151maJhMqw3MUrlrsuJDuaChfYTYwkXApjeOHcw2jrXpYtcAe4HXgSVSfVnV3+kRCayyvoAmV4QGBWnGxz/UHkhzVUao6H/QMwnWeOpgHZbQzwaoBDgKvgv5FVJ8FOYjPF1x7rmVvN6EyWp1xKxc6DpoqaH8VOQ84j3BBwnQse4RhHtZB4DngYRFZh8ph0VD9GivuaEJltDwFqxcLbigZ6CfKNITzFEaZB2UYH+P4HtZulOdE5FFRXRdCS9fPfjBk5jGhMlqI/JJLfCLBXqhOA+YA44AswmHmhmGcXLAqgfeAZxQeV3jNJ1SsnWkRgiZURtQoXLnQcUUyBPc0YD7hQIkehJPEWhsaxqkJAmXAFuAfwKOIbPKFQnUvW4SgCZXRdApWLXRCriT6CI1GZCFwFuFAiVTsoK5hNMW7CgJHgE3AQ47qKsTZu2bWA0EzjwmV0QgmlCySIG4SInmozgTmAcP4KFDCMIzmCVYdcAB4BuVBxFmnOEfWz7rP9q9MqIxTMf2xRc5Rv3Zz0TOBC4HxhPeh7CyUYURfsKqAd0FWA48LumntrOXHzDQmVMbJvKjH5kkwkJgi6uYrXER4ma8P4XIbhmG0HCHCy4GvAY+ArFbH2b3+XCsrYkJlfMikv8xzggm+PNdxzgcuILzMl4GVejeM1qQG2AU8Kzj3ByWwxkd17bqZFmxhQtWOKVp9ibhuMA20EFgCnAl0xcLNDSNWuEAF8BbwoIr8zXGdPWtn32/BFiZU7Y+ClQsSxXF6KVyA6sWEE8emWJsYhieoB/YDT4Msc1XW4lD+ykxLxWRC1V5EqmRBFshkoJhw+fcu2DKfYXiN44eFNwKPIbISkS3rzl1Wb6YxoWqzFJUs9inuYEUvIpybbzDhM1GGYXjfu/o38ADKM+tmLy8zs5hQtSnGPnGJBOprklyffyqqlzV4UZ2x3HyGEW/e1TvAQygP1/k67Nhw7h0WGWhCFf8UrFjgU5+vm6h7EbAQGNrgRZntDSM+vat9wBMCd6P66trZD1abWUyo4lekVhYnA6MRFhMuZtjDvCjDaBPe1TFgDXAPjvNUJc6Bt869z7wrE6r4orCkuIvC2cAiwtklMs3ehtGmqAW2gqxUWO4T5801M++vM7OYUHmeafdNkLKOecMIR/TNAQZg2SUMo63iEi7S+BLIMhznqXXn3m+BFiZU3mVcyeIkh9AU4DJgKpCDhZ0bRlvneM7Ad4AHgAccdO+aWVZN2ITKQ5z52AI55pdOipwLegWQD6SZfQ2jXREEdgN/E/RPENi8dtZ9duYqCthsv5mMeOpzjmh9H8VdClwLjMEyTBhGe8QhnKNzAEgu6NHui4bv27Nsk4mVeVSxI3/lwoCgYxFZCjoT6GnibxgG4XyB64B7VWXl+tkPHDKTmFC1OgWrFqWh7lmE96NOI1wzyuxpGMZxaoEtwEOo3r9u9oPbzCQmVK1C4WMLxA34s0VDFwGXACOxNEiGYZycELAHeALVO9161r1ywYNWRdiEquXIX7XY57j1uSrOUsJZJvpilXcNw/hsFDgKvAD80ac88/Ls5ZVmlsix/ZQIKSgp9guMROQ6wod4e2NZJgzDiMwhSAZyBfJUqO6+eNiuPcvetNRLJlTRY1zJokRBJwFfAOYSLm7omGUMw2gEAaAb0BfE7b5kxM499286ZmYxoWq+J7W6OFnUnQHyBWAa0AlbMjUMo2n4CScC6CeQ1GPRsB17lr15xMxyapfU+FRPqjjNEbkA1auBsVjQhGEY0SEE7AL+psifnCBvrZ37gCW1NaGKnEl/myZ1gaxsoBiRywmX5kg0yxiGEUUa8gRKiQh3oO5ra2c9aEltT4It/X1SpB6/UOr9aXmIXIHIlcAQIMEs0z5IcxykYbprGK3gKKQCfYBuIKU9Lhm5d8/9G4NmGhOqT2V8ycUScvz9VeQqYAnh8HOL7GtH1KmaSBmtLVbJQC8gF9Xy3guHfbDzgTct7ZIJ1X+SX7JQXHEGCPwX4TNSuWYfwzBaiQSgO5DrilR3XTxy295lG20Z0ITqIwpKih1RBgvcAMwPu+EWfm4YRqsSALoAvRy0uueSEdt337+pxsxiQkVhSbEPGIFwPTCvoaNYkIlhGLHgePh6HlDbffGI7XuWbWr3B4PbtVBNeLzYrw5jCS/3zW3oIIZhGLEel3OAXgJ1PRcN3b572ZtVJlTtkIJVi3yuUEQ428QsoLN5UoZheAQHyAbyEHF7LBq2fc+yN9ttFot2KVQFJQtFkEmgNwIzsGwThmF4U6yygFxEtOeSEVt337+pXSazbXdCVVBS7CgyEfSLwNlApomUYRgeFqtOhKOQQz0WD39vz7JN7W4ZsF0JVcGqhX6gUOB6YDrhstGGYRjxIFa9gGCPxcO3tjexajeeRMGqJT4IjUP1OsJ7Up2s/xsRz+gE8jSJbO1EakIn0hOySU3MIi0h/OM4vobrUhAJlyhT9YdfMAmiWk9Iw2NLZd0RUKW89gDHag9RXneII/V7OOBUcFiD1KqawY2TEQTeAf6A6rJ1sx9sN+Xt24VQFZYUOwojCJ+TmoOVjTcayRT/YH5+zi2t8lnH6kLsPVbLrvIaSqsrKK/ZwcHKbRyo3MpbbKU0ZLkz2rlYvQ380VGWrZm9vF2IVZsfrPNLFomig5zwntSFhCNpTKTaKV0cH2OTihiYNYncjD4cqKzh1m1f9pRQnYrD1fW8e7iKneVH2Fu+gR1lG9igmzkasuTb7YR64E3gdpTl62YvL2vrD9ym89iNfWKJSCg4sGFP6gLCIehGO2IAKYzPmkP/rEmM6ppO97SPJ8H/+/ulcfdMnZIDFPXIoKhHBuFC03MB+KCshjf2V7Cr/BU2H3qBV3SbLSO2TQLAMOAKhMrCkoWPrZ31QIUJVRwy+dE5UhMK9Rf4nIY9KTvM2w7I8DmcnjSFwTkzKezemV4ZSe3m2fMyksjLSCJ84mIG9a7y1sFjbCndzYZ9q/hX3StUueZ1tSGxGg1cq2h1wepFq9edu6zNBli0SaEa+NQ1UlNXngd6uX6UFsloo3RxfMzKvpTCHuMZ1TUdn9jKLkDAEUZ1SWdUl8HMHzqYupDL+r3lvHNwI6/tXcEr7CKIeVxxTAJQAPwXrltX+Oj81WvPf7hNlghpk0LVsa48y4VFwAKgB7Yn1fba2OdwbsaF5Pc4iwk9MvA51sSnHNV8DhN7ZjKx52QYM5m7Xn+R3+35rRkmvkkExgPXasBXeeY/i599ZuryNjf7aHNClb9iQaobFqjFhBM7Whb0NoIAZyWMYUqfKzirTxYBE6dm2tPs10ZIAU4DyisqKZu04cuvvjjql21KrNqUUOWvXpgkIfd84ApgIJYdvk2Q4/g4v8tVnN23iLyMZDNIK5MsQrUFZXidDsBZwJG63Xsrxj295N1Xpt3XZhqtzQhVQUlxAq6eSbg67zCsMm/cM46uzBzwLWb0yzbvKYZ8LvcbDOnchxc+eJbHjzxImYXBe3XBoTNwHqpHfTX1/wfsMqHykkitmO8HioCrgXzC67ZGnDIzZRJzBl3K2G4dzBgeYXSXdEZ3mcNVwdn8fesh1uy8i3/WvW7BGN4Tqx7AxSpydPyKBX98+bwHj5hQeYDxqy91XLd+mKJXAacDadZf4/MNm5lyGnMGX8qYrulmEI+S7HeYOyiHuYNu4lBVPc9u38bK7bfxNsfMON7AAfoAl4QcKRtdUnzf67OWx33YelwLVdGjF4obqslVca4kfHgk0/pp/HFuykSWjLySAZ1SzBhxRHZKgPlDB3LhkDt46v1Snn7vtzwf2myGiT0+YDBwRaJSXlgy729rZ/2l1oQqRrj+hE4IS4HzscKH8TfRIJeFI7/FxJ42v4jrUVGEGf2ymdHve2wurWTF5sd5rGyFZcWILQFgpApXKIFD40qK//nKrOVxe8YqboWqsKQ4tSHjxELsrFRc0ZckFve/lVkDOmMxEm2LQVmpDJq4kCuqL+KJ9zaxbPcvOOBaEt0YkaxQCFzmwIGCFfM3rTvv4biMhIlLoRq/clEghHsWsBToi52VigsSRbi251eYP3QMiT5rsrZMp+QAi0aMYc6gu3l08+vcu+eXHLFowVjQATgT2IPP/2tgdzw+RNyNFmMevUAUd3SDSI0inEbE8DhTA8O4e/yfWDJinIlUOyItwceSEeP465n38KVe3yTD2r61EcIp5C5EdX7R6iVxuREcV71m1ONLxOdPzHOFS4EpWISf58lxfHx/0P9w69k307ejHdZtr6QGfCwcPpIHp9zFkqxi/Lbk29rjfB6wRN3gzNErLvHH4wPEDQm+UEcR5hOu0Jtl/c/bXJB+NvefcRcz+mWbMQwgvCR4Q9Fclk24k5kpk8wgrYcfGKpwZYJTP2HcioviKmtP3AjV2JLiJNCZhJPN5mLBE56lgyPc3P83fHPyFWQkWoIQ4z/pnZnM96Zexy9H/B+DsGMJrUQyUKRwmeP4+o8vmRc3Y2hcCNW0ZaeJDyYTzuE3BEuP5FmmBoZzz2l/Zs5Aq1FpnJrTcjO54+w7uCLnclsObB0ygXNAFoVIyBn3xJVxYfW4EKqyjJ5Dgcuw9EjeXVcQ+Eret/nJtG/9RxVdw/jMaX7Ax+fyz+G+8XdymtPfDNKyCNANmIcw23Gr4qKyqOeFqqCkOIdw2Y6pWPCEJ+ktSdwx7g8sGDbcihYaTaZvx2Rum/59bsj9qnlXLYsPGIDqYoGxBauXeF4HPP0Fx5YsSgamAXMJh1ha9/UYp/uH8LvTf8/wHJtDGFEYQUVYMmIcfy78I2OtMHdLkgCMU9XLUe1lQtVkT2qxz4eOIBw8YbWlPMjS7CX8dNp3yE6xo2xGdBmUlcqvp/+SS7IXmjFajnRgOuouGPfE5R1NqBpJ/pNLBHG7gC4GJgBJ1qe81GmUr/X+EV8onGUl4I0WI9HncH3hHG4Z8D+kWz9rCQToCjrfCdWcOX7lxZ6dcXpSqHx1tYmoXgScB3S0/uQdkkX4/uD/Zf7QvmYMo1WYNSCbP0+4k1F0MmNEHz8wGHSRiwyd8tBcT84IPCdU40sW+0KOfzLhZLN2XspL6wSO8IvRt3NOXztrbbQuvTKS+OW03zA9uciMEX1SgEkqcnF1anKXgpULPDfmek6oXNwBgl6GlZP3FJk+h1+NvYN8q7prxGqilODj/039Il/ofr3NXqOLANmEg9bOwXE8t9XiKaEqKFmQpeh8rFKvp8j2+fif/DsYaZF9RqwHLIGloydyU99f4zO1iiY+oB+wBNUxJlSfQn5JcSLIZCwU3XueVP7vGZSVasYwPMO8wTn8ZOjvSHEsG3sUSSRcv2pxYcmibiZUn2Dc6kscxOkNFBMuoWxLfh4gzXG4dfTtJlKGJ5ma15HfjP09Ha10SDRJB6Yr7pzxq4s9EwXoiRZ23GC6qDuPcOkOGxW9MLUS4ScjfsfoLulmDMOzjMxJ49fj7iDbZ8cso6gJPYB5IZcx40uKHa98qZhy2sqLfcAkYD6QY/0k9gjwzQG/oahHhhnD8DyDs1P57/w7yHFMrKI1TyVclPaikIgnskvHVKjyS4qlVnx9QJdg2Sc8w5d6fZOZ/a2GlBE/DMxK4b+LzLOK4lw1CzgH1an5KxfGPAowpkLlF18q6PmES3hY+VcPsCBzLsXDR5ohjLijf8cUbht7Ox0si0U0CCeuhQUi9MtftSimWhGzD5+8erETUrcAOJ/wkp/1rhgzXvK4ruhiM4QRtwzrnMZPRt5OsmXxjwbJwCTQeQmuG9OzKTERqvErF0htKNgddB7hQoiW1TTG5Dg+vjn5/5FoEVRGnFPQvQPfG/Jb/Db3jQZZwIVBYXJByeKYRWPHZFQKIYkqcjpwJmA79jHGQfn28N/SzQoeGm2EM3p34su9v2+GaD4+YIDCJYKbN75kYUzUv9WFqqhksSPi9AEuBHpjARQx59ru1zOhZ6YZwmhTXDS0P4s7XWSGaD7JwCRFz6sXiUksQasLlaDJqjoHmIgFUMSc05z+XDpyohnCaJNcV3ghZwZGmCGaO2xDZ2COozoqv2RRq3tVrSpU+auXOCHR0YheQDgJohFDUh2HL0/8ttWUMtosPke46bSvkSe2rN1MEoDhoHMEt9XH7lYTqnGrLxVRyUJ1EZYmyRN8Ie/H9OxgNSmNtk2n5ADfHP0b/DYfa65X1RGYDhQVrFrYqgFwrSZUCYpPNDQVOItwPikjhpwRGM68IXlmCKNdMLZbB76c9wMzRPPwEz5bNRdXcwpWFrea9LeKUBWUFEtQ63sr7jzCeaQsBjqGJItwXdFXLHjXaFfMG9qfc5IKzBDNIwU4A2EK0nqrYq0iGD7xJUvYkypseFAjhlzb82vk2pKf0c4Q4Mbx11mapeZrRg9gvqr0GttKgRUtLlRjVy5xQqr9FJ0FdDNvKrYMJY2Lho4yQxjtks4pCXxpwK/NEM0jCSgSdE5yKNQqe1UtLhqOhFJAzwLGEc7Ka8SQq0fcRoJlnzDaMWf3zWJu+jQzRPPIQji/3mFo0YqLW9yratERK79kkQP0Az2PcDi6bYvEkOnJRUzKtYO9hnHtuEut4GLzCACDVWRO0PG1eHBcy7aUhJIFnU24tonl84shfoRLR11jhjAMIDslwLV5vzJDNGN0BzKBsxx0RH4LF1hssZuPW7nQwXWGAXOwfH4xZ0GneQzoZHEshnGcCwbncJrT3wzRTK8KmO6IZBaubrnACqflnkBTRfQiwnH3drg3hiQAFw+fbYYwjE+4BJeN/ToOasZonld1tqoOVzfUYuGULSJUhSXFjiuMwQ73eoJ5neZZZnTDOAkjc9JYYIlro+BVydmCL71w1eIW8aqiLlQFKxcIqhkKs4E8LDt6TPEjXDgkvryp8togrk1yjVZiwfDzSLRCi80hDZih6GBVbRHnJ+pLcgHUCYozCpgCdMAi/WLK3IwZ5GV483BvTdDlpV1Hebf0FTYdeJotzi6OhlwU8Av0JIk+/v6M7T6X0V37MCgr1Ro0CuypqGXVe//moQN/iOj6e3bfSm3w88zoX0DXtLYXE9U9LZHi7CXcffBe6xxN1hEdAMwRYRNQEe0PiKqIFK5eLKjbUZUvgX6ecHVII0Y4KPeOv9NzQRRHa4Ksencjy3b/ggNuKHJvXbtx/pBvM61vVtQ67t/fL+Xmd6475XVT/IP5+Tm3xHV/qKwPceerK3mg9EGCTdiX8Qlckn0Jl42eTkqgbS2UHKisY/7zl1Gt5so3kRCwUdD/EnXXrJn9sBvdsSyKqBvyqTII9MwGb8qIIbNTz/CcSD2+5SDzn1vKf++8tVEiBbBO9vLtd67jhlU3sfVItTVwI1izu4zLn76Se0uXN0mkAEIKdx28l6ufuob1e8vblH1yUhNYlHO5dZSm4wPyFC50xR/1pQ8nyjdLAT2dcMhiwNoutpw/ZLFnvkt1fYgfvfAnfvjeDZSFmjfZWsNOrnz5Sv7y9j5r5Ah4YushvvTG59iutVG537tU8aXXP8c/th1uU3aaN2QqKY4dAm4G6SBTgeEFqxZGW1uiw/iVCxyUnoTrlaRZm8WW8ZLH8BxvNEN1fYhb/vlTHqt4Omr3rFLlZ9u+xINvvWmN/RmsePcg3998A8Eor2jVqvKdd77Ak1tL24ytslMCXNrlc9ZpmudV9QKdoa5GdfCJmlC5IgEVzgCGYVkoYs6U3jd64nvUu8p3n/0R/6zf1CL3/8X2H/LI29utwU/CltIqfv7ejU1e6jsVQYWfvHsD77ehZdjzBhVZgcWm03CuSiYjzsD8VYuipi9RuVFBSbEodFU4D8tCEXPSHIeZ/XM88V3u3vAczwXfbtHP+OW2b7Fhf4U1/IlebNDlZy9/qcWDA6pcl9v+/S1qQ26bsFvnlATOSz/HOlDTCQCDBJ0sUSzpFB3FE8ePhNcmsb2pmHN+x4s9EZW1dncZf9x7e4t/ThDlN+u/2mYGy2jw2OY32SitE/DwCvt4fPP7bcZ25/SbZx2oWV6VdgKdKqq5hVHKAdjsm+SvWiQKXQh7Ux2xc1Mx56y+Z3nie9z7xo9xW6k7bJRyHn3nLWt8oKo+xN27ftaqn3nfju9TE2wbE4Vx3Towjq7WkZpOIjAa1TGiGpVtoGYLlSsBn6hORHUU4YJaRgwpIpdhnWMfRPGvnUdZozsa9TspjsMkpx9TA8Pp24Su9NCOWwlaSgtK3ttBaSjUpN9taoaGvW49Je/taTuTvT432WDSLK+KbBWmK9KxaGVxs2erzcpMkb/6EkGD2cA0IAer3htzTu/zBU98j7+/d1fE13Z3AlzW5+ec2z+bxBNqBG0ureThN+/n8WPPRnSfnVrPyncPcmbvThF/dnV9qM31gVd2L2/U9dOSxjK931UUdO9ASsBHZX2ItbvLePK93/NM3RsR3+f1vY8wb/AX24QNZw3owu93OM0+StGOSQImqjBC4SAQjJlQEar3ichI0HyiuHFmNNU9VqbmdYv596gNuTxfszaia8fShR9OuY3slP/c2hyUlcrNU65h0FtncNv270Z0vx9vvZEfb22/feBYXYjn69+I8OUXvtznF1w05ON9JjXg44zenTij9zd55O1t/HzbNyNawn2+Zi3VQZdkf/zPV5P9DvOylnLngT/bwNLU4Qi6AnNUeRkob+7NmsS4FcUCpIFOBHpjpTxizmm+wWSnxP5kwPo95VRFEG2W6jh8d8rPTipSJzJ/6ACWdr7EGjgC3jp4LOIzU1/q/f/+Q6Q+yUVD+vClvJsj805V2Vxa2WaxDBBvAAAgAElEQVRsOSF3gnWoZuo9MEWEgc0NqmjyL/scHBF6AacBli3UAxTlLvHE99hdvjei65Z2/S+6R1h+5JKR55BqWQNOyb7KuoiuG00W84YMiOjai4YOY1iEZ/j3HattM7Yc2SWd3mLb7s3Ul26g54Kb2NwbNRFNEHQMMBQLSY85AkzKzfXEdymrjSy1UVHP0RHfs0Oin3NSz7KGPpVXU78/ouvO7n0jToRb3D4RZuRFdoC8ovZom3qnzumy1DpV80yYDkxxcXo2p1x9k36x6PGLBVczFM4hXOHRQtJj7U1JHt3TvVEc8Uj1roiu65OZ3Kj75mWOsYaOEv06dmnU9T079Ix4ZGpT71XPfOsszSMA0k9gkqNukw93NkmoXJ/jU8cZDDIeC0n3BJN6LfHMd/FJZA52eW3jAoFqQ1Uxe6a0hPioWONzMiO6LrGRAQ+RBkgEfG2raMLwnDT6STJGk3GAzsBpiNOpsGShNPUmjUbFSQJmANnmTXmDgu79PPNdMpIjOyy5bk/jAoHePvhszJ5pSOepcdEP0hIimzfuKm/cXtLuCPeeMpPa1i6AAGd1vdQGmOaRBIxUZIhK0yq+N1qo8lcVO6Jud+B0LCTdE/SUBPp29M6sLyOxR0TXPbvtfyO+57uHq/hXfWwyT2T5fMzoPzgu+kKkh73fOfjPxk0SDjwR0aA+rHPbi6vK7z7OBplmOvpAb9CxqNukFbhGC5Wo+oDJQF7DFzBizPgO0zz1ffp3isyjej74TkSZz2tDLr9b++MWywL+maLrc/jByN+RkRgfpy9yOyTRW069V/nXI39hd0VkXtL2o9U8XrbqlNcN1w6eOB4RbUbkpJHhs4jTZjqm6cAEB8kZv3JBo43ZqF+YsOoSccSXCZxFuIKvLft5gH6dzvbU9xnZJfIX+5fbvsXDb23h0zIfHa6u55Znf8aLbmSneJNFyPA5zfrJ9DmM0k5cnrOUeybdSX63+Np3mdTxvFNeU63Kz1/8AcfqPjszR3ltkJ+/eDORBL3nd7mgbboDIpyWONEGmuaRAIxVGBgSp9Gzvkb9QgjXQRkGDMGCKDxDYY9Mz73YZ6fO4JHyU8/Cgyi3bb+Ff27rxhl9r2dQVmfSE3zsq6xj0/7XWH7gDsobkb/vx8N/x6TczHbdH2YMmMGyNY+c0v980d3K157+Kl/I/8FJi2y+vr+C/33lG2yQU1fydVBm9D+9zdp0WJeZlGz7lw02TccBOisyRYWX81ctql8/c1nEL3ajhErdUKIK4wW6YXn9PEFvSSS3g/fmDDMHXsAj61dFfP062cu6bd+CbU3/zNFktXuRgnDqqbOSxvJ0zaunvPYV9nHV+quY5BvEyC7TSUnIobJuP2/se4IX3fciXmw9N2Vyo48bxBNju3ZtVt80AEhCmCKqdyJaDkRfqArC64o5AmMIF0e0ZT8PUJQ5w5Pfa3hOGtOTCnkywpx/0WB6n+9Yh2hg8YjP88/1V0eUTslFeCG0hRf2bGnSZyWKsGjk5W3ann07JtNTEtildda5mk4A1f4CY1A+ACLO+BuxVySO34cwiPCyn2Wi8MoL1OlMz363pWOuJVlaZz4zNTCcCwZ3sQ7RwLDOaVzXs3VKVVzf6zsM6NT2A4AnZsywjtV80oHpKo07nBaxUKlqMsgooCcW7ecdz8UDtac+jf4dU7i+909a/HNSHIfrCr8ScUqg9sKCYaOZltCy2TymJxdx0dAh7cKevTueYZ2q+SQq5CuSN27Vooj1J6ILC0qKHXA7gxYSzohreIAUEU+dnzoZ84bksSBzbovdPwH4wdDf0ivDYns+ic8RvjP1q0wNDG+R+09LHMPNU25oNxOEIdlp1qmajwN0EdXJgvob80sR9XmgFzCyYWwwPMAY6YtPvD1KCPClCcUUdzw/+gOxwC2Df8vkXh2tM3wKyX6H7039BrNSTovqfeemT+O7p3/1Y4Uu2zoDs1Jt8IvOkJAOOtFx3bTxK+ZHNIBF2ssSgbFYFV9P0bdTYXxMoQS+OH4BN+R+FV+UdDVPEvnt6N9zdt8s6win8rwDPm6Z+gVu6nMbKc2c2KQ6Dl/v+2u+PflKkvztaygIOMIYcq1DNZ9EYCDQz5XIavec8qKikgUiDanasbNTnqJbemHcfFdHYMmIcfx+3B8YpZ2afh+UizJm8scz/8i4bh2sEzSCi4b05MEpd3FFl8sbLVipjsPVXa/hoSl/Zt7gnHZrw/6diqwjRWE4ALqpSD6OL6Llv1P21sKVxT6gUIVlhNMm2Za1R/hzwR8izu3mJVyFp94v5Yl3f9WojBMzO8zgoqHz6dfRtkmby+Hqep7Zfoh3Dq7guernKAv9Z6Rwps9hasqZDMqexVl9sslMsiLej7y9k1u33WQdqPlUAvcizncQp3Tdufd95kGKU/Y8FxIknNvP6k55CL8QtyHBjsD0fllM7/dDdpbXsHb3Ud47/HcOHnufstBByqSKTE2la3J/uqYNZHDn8UzomRlxqQnj1HRKDoTL0A+5hpu5hmN1IQ5W1XGsLkRago+c1ARSAxbc+0kGZnW0g7/RIQAMVtU8CB0BQk0WqoLHF4gqKSpMEov289YShKaR0AY2snM7JJHboStgpRRiSVqCj7QEe8VPxYCOyQjEID1y25trA30E7a8qm04lVJ850qkjjgh9JHzQ1w75eoieSQPNCIbRyiQHfHRzbCiMAg7QCRgKmppfUixNFioEP0IRljLJc/RIG2pGMIwY0N/pZ0aIDgnAWAkLVtOFykFSgELCUX8mVB4iJ22AGcEwYkD39MFmhOgQCHtUdBPUaZJQFZUsdIAeQD/skK/nyErJNiMYRgzolj7EjBAdji//jYLPrvb5qUKlqn5UhwJdsNx+nsOLpT0Moz2QkdTdjBA9kkCKQFIKVi2URgsVkKDCECJYPzRaFzGhMoyY0cvevWgSAB2laEf3M3TmpEJVtLJYgI7AACDFhMpjMzqf0+7S1xiGV+ialmhGiB4+wqt2Q+UzVu5OOtq5gk+FXKAvjawCbLQ8PUIpZgTDiBEdk/w4dpIqmiQ7MMFRDTRKqBQ5ni29F7Y/5Tmy/ZYY0zBi5gI4Qiefzd+jSKKGk56nFq1aIBEJ1biSRQIkK9IP6IAt+3mOjKSuZgTDiCE9QhlmhOjhB3IV7eXqyZ2n//hHwRVBMwQdimWjMKEyDOM/6BSwyL8oIkBauIK8+CMUKhXCCWiHmFB5k0wTKsOI8TvYzYwQXdJEZKSIE5lQNexP9QRysf0pT5IcyDEjGEYMsVWNqHtUSaraX9H0glWL5ZRCBSQqMoJwFUbDgwQci/ozjFiSErA9qigTDlNX7YuGfJ8pVAWrLxcRX6Kgo7BlP8+SaGeoDCOmJPhsshhlHCALpB/hVb1PFypXElAJpAODTag8LFQ+EyrDiCUBX6oZIbocj43IO1lAxcdGPAlV+HBrewE5nKoEiGEelWG011FVrMhkCwhVEmgv0PSCVYvkU4XKUdfvqA4nXM3Xzk95lCTzqAwjpvgc28JvCbMSDuLrzCfKfnzMxVIRv8BIUCvrYR6VYRifQrK9gy0lVD1BO6N8ukflokmKDsLqT5lQGYbx6e+grWq0BA7hbaf/KC31obXHlSx0BOkadrvs/JRhGManIWI7Iy1hVsLbTrkgSfkn7FM5H/lc6nfQfoTLehgexnXNBoYR03dQLXt6C+EH+oCmygk2/lCoFHwK/bH6U54naC+JYRhtEx/QD0glnM7v40IFPj9KPyziz/OEXBMqwzCPqs16VHlAup6gQw5AfsnnBHxJiHTHUid5X6jsJTGMGAuV2aCFCGeoUDqLfhQr4QCIljlofQ5oR/OmzKMyDOOzsbliixIgXF0+8HGhcnDEoRuQgWWkMKEyDOOz30FTqpbEj0g/RAIFJQsl/A+AqjpAV6yib1xQURcyIxhGDKkOWuhtC+IT1b6IBI6flApnphBxUO1iQhUflNcFzQiGEUNcrTQjtKBHpUIeEkhUJwn4cJnPCYDkAEkmVHGw7BAqNyMYRiyFyjWhakEcoDPqdhS31gFwilYuFHFD6aDZWEaKuKAmVGZGMIwYUhs0oWphEiGYi9aFhcoVdVToAGRjgRRxwbG6UjOCYcSQqqBNFlsQAfyC9JKGIor+hn9MBzqZUMUHlXWHzQiGEUNq6ivMCC1LQIVc0LBQaTiderqIeVTxQnntQTOCYcQQW9Vocfyo9qJhO8ovghCO9rPDvnHCgar3zQiGYZPFNi1UAj1oiEx3HNQn4Vr1FvEXJ7zvO2BGMIwYcqRujxmhZXEUMl0kdezKxeK4kKAW8RdfL0nItQOHhhFDdvktmKKFEcJ5Z7Mc1HHASQCnM7Y/FVfsP1ZrRjCMGBBS5UjIDt23AokOdHYExxFIlHBVXxOqOGJfZZ0ZwTBiwNGaIK7tkrQGAUU7u7iOX9EE7AxV/AmVeVSGERMOV9ebEVoeARJE6SzgOEACkGVCFV/UhewslWHYJLFNk6BClgqOX8M1PzLFhCquSPJnmREMIwYcqLL0Sa3kUQXQcI1EvwMJGq5DZYuucUR+9w5mBMOIAZW1u80IrUMAkUzCS3+Sip2hiiuGkEb3tEQzhGHEwqOqtAP3rYQDpIqI39Fw+Xlb9osjCjtfYEYwjJgJ1VYzQuuR5EKag2JCFWcMzh5vRjCMGLG7fpsZoXUQwqt9aQ4iVtU3jvALFPXIMEMYRgyod5X3pcoM0XpClSiqyQ5oB/Oo4ofx0p+0BMt2ZRixYFd5DSE1O7QiCYqkOCDp5lHFD2O6nWdGMIwYse1otRmhdT2qBEGTHFATqjhiaM5gM4JhxIjSKqtc0MoEFEl2FEnDlv7ignRHGN0l3QxhGDFib8VmM0LrelQBEZIcEVLMo4oPJidNxOdYUxlGrNhVvsmM0MoelagmOqKaZLaID4blzDQjGEYM2ei+bUZoXY/Kp6oBRy0rRdwwtls3M4JhxIhDVXWUhkJmiNbFj0jAj2oiIiZUHidXAvTrmGyGaOBgVR2v7q3gQOVWqurLqKkvJ8GfSnZKXzKSsijsnkFmkt8M5TE+KKvm9X0VVNXv41DlNhRIScggPbEzvTr0YFSXdFIC3jx+sbnUzk/FRKggwY9IsnlU3mdipi37ldcGeXLrdp7Ydhsbpfyze/c7wgTfAMb3uozzBuSR5Ld4oVixv7KOFVte4oW99/M2x041fWZKYDhn9L2WaX06eWpPdk/FPmvM1scHBPyE61GZUHmcgdlntdtnD7rKI29t5PZdP6PKdSPqrUGUF0JbeGHbt7j3gwCX9vouFwzph88WD1qNIzX1PLDxKR44dB+1Gtkp2SDKM/UbeWbzdfxpSyLXDv4lZ/Xp5Inn2VH2ujVq6yKEI9L9/gbFMjzeWhN6ZLbLZ3/7UCW/XHsTG2h6och9bj23bv8OL+8azFcmfoNulnm+xVm7u4yfvnEDu7SuyffYrrV88+0vMHvH6Xxx/FV0SIztUu72I69aw7Y+Dg0Vfk2oPM5YupKdEmh3z/3SrqNct/7qZonUiTwffIelL17Bhv0V1qlakEfe3sYXN3y+WSJ1Iisrn+Mr/7iRvTGsrFsXcnmNnda4MZinC/hMqOKAcV3ntrtnfu6DI9z0xuepcKObWO1oyOWrr3+Otw5ZldaWEald3LbtWwSJbrtt4DDXvXA1+47VxeS5NpdWUWfNGxOhUpDjQmUL9x5mcPbodvW8H5RV88N3rmuxgaEs5HLT+ms5VGVDT7QnFz/f9lVaKmfrTq3nJy98l7qQ2/pCdeiINXAMxcoxkfI2SSKMa0dl54Ou8sMXv0pZCw9GB9wQv1nzOywRdpQ81Zogv3z7RtwWHk7+rR/wh1efaPXn21H2kjVy7HAsZtfjTPQPJ7kdhVY/unl71PakTsUT1WtYseWgdbIo8KdXH2GvW98qn3X/wft470jrnml658gL1sixQx3Ajlp7mDHd57SbZz1WF+LOHd9p1c987N2bcc2taha7ymt4pOyxRv1Osgh5kkiHJpyTCqLct+HOVu2Xm1pp8mScFNcPuIBiS4CeZHhO73bzrE++v5dDEaao8Qss6HgRE3udzZDsVByB7WU1vL53C/fu+UXEqW42Sjn//OAwZ/buZJ2tqWK/+ZmIiwlODQzjwqHXM6ZrOom+8ErB5tJKnt32IvccuCviIIzVVS9yVflV9OzQ8qlKX9tXHvXgECNyb0oaPKqg2cKbZPl8DMlOazfPu27XvRFd180JcPu4P3Dj+HkUdO9AWoKPlICPodmpLBoxhofOuJszAsMj/tz1u0qsszV1qquw8vCyiK79Wu//x8/OvpnxPTI+FCmAQVmpfC7/HP571P+R6YtsmVuBf+18t1Wecevht6yhY6lUDULlmim8yeSUM2gvVT3KaoM8X7fxlNclifDjcb9jZM6nC3h6go8fnPlNxkteRJ/9/LEnbb7cRN4prYzIe72m67XMHzrwM5dtCntk8K3Bv414aeelHfe3yjNu3P93a+gYzoWAkAPUN0xQDI8xMLv95PfbUloV0fLKpV2uYVjnU3uZCT6Hq8bdjBPBPQ+4Id47bAlHm8KbB/ae8poMn8OiEZMjut/UvI6cl3ZGRNduYEeL7y/WBF3Wuu9aQ8dcqFRrTai8ycSe7WffZEd5eUTXndmnKOJ7jsxJI197RHRtLLMexDNHqref8przOy5qVEb0ib0uiui6alV2V9S06PO9sb8i4jyFRtRRwsF+9Q4iNWYP7zGIFLqnt5+cdFW1e055Tarj0LeRpU6GdTk7outKq+ut0zWBo9Wn9qi6pA9t3EpCp5SIr91f2bKHtt89vNUaObY0CBXUmEflPQqz21faJMc5dcLRpCZkPg/4IosKqw9Z+HGThKrm1EK1p/yNRt0zuRHeV0ufMNy4/0lr5NgSRLXeERMqTzI4e1K7el6fnFqoSkMhjtU17thfWXVkNYRq6sus0zWByvpTC/xbpc826p6N2S9syXpVQVd5ObjJGjl2HF/6q3MUMaHyGH6Eoh4Z7eqZkwNdI7ruxZ1HGzXQ/KNiZdQ8OuNkE4xTZ/V/jf3sKIt8h+HNA5F7YC1ZsmXTwWPh+mdGTD0qcZw6B/SYCZW3KHL6xrz2TmszMCs1outWbbkt4kivRzfvj/gA8b6KLdRbiopGcaiqjrLQgYimxWt2b4/onnuO1XLPvv+L6Npsn4+c1IQWe753Dm6zRo49da5S6yhSjp2l8hRjup3X7p65X8dkUiLYgwonJX3qlNdtKa3itx98JeLPf+jo41z+xFU8ubXUZm2noCbo8sCmN7j4+cvZKJFFa96x8wdsKf3sJb2y2iC3/esHVEUYZTcuMK5Fn3P97r9aY8cWBeoFrXZE3QrzqLzFkM5D2t0zJ/gcZqafG9G1f9p/J794aTlHak4eqbdiy0E+v+6qRi/bbKGK72y+jpv+/n02HjhmHfEThFT5yzu7WPTU5fxqx0841gj7loVcrl13NY+8tfOkZTr+teMoX376C7zoRh5lN7rbohZ71rLaIC+Ftlijx16o6kSk2o+ICZWHSHUcRndNb5fPPqHXbB7ZtCqiax88+hhPPLeCqSlnMijrdBQoq93Fc3vvZTPNO7z7XPBtnl9/NfMz57B45IVWuh5Yu6eMe1//EWuaUeW20nW5dftN/GGnw5SUM+mckseR6j1sKXsx7Jk1Ii4iRYTp/bJb7Hn/veuo5ffzBnWoVvtRKhBb+vMKkxMLCDjtMz/wxNxMxm7qwqvsj3iW/ljF01DxdItM5R46+jiPv7CCS7tew4Jhk0lPaH/FsD8oq+bu1+9mZeVzUbvnkQ/breEfmtDdF3S+lLQWbI83DzyN4Q2PCqXaEeGoeVTeYUSX2e322X0iXDLie576TjWq3LH39yx6Zil/eWcXoXYScFFaXc9v1jzGwpeuiKpIRYOOPofFI6a16Oj4XNkqDE9QqyKVjoocxoIpPMPort3b9fNPys3kgg7neO577XdD/Oz9r3HVE9fwzPa2ezi43lUefmsLxc9fxn2lywl6UJev6fXLFo2KfftQJftcy1TiEY+qRnCP+VUpEyv14QlyJcCARqSPaat8sehSdjz1Bq+wz3Pf7U2O8Y23vsD09wu5dPS1baa9FHh88wHuf//rbFfvZlVbmr2EeUO6tOhnvLH/fRuMvNMtqxSpcQStJbxabF5VjJmQca4ZgXAKne9M/il9SfLsd3yyZi2XvHwFv3hpOfuO1cW1vd84cIyvPfk9frT1Rk+L1PTkIq7Nb/mKAmt3PmQvoTcIAuWAe7zMh+1TeYCB2dPMCA10T0/kt1N/T5H0iup9pyWO4Wu9v09HX/OzxLkIDx59jOIXLuOeDWuoqg/FlY33VNRy67/u5er1V/N8aHNU7jmOrny97230luhGSl6SVcz3Tr8RfwsHGh2orOMlK+vhFW/qQ23y9Vg8PBM4C+gF+Mw+sUGAb4wsblQ5hLZOSsDHGb3PRMtTeLNqY7Ncfj/C9blf48aiixiek8Xc3LkkVeewqfJVmisv9cDaipd5cvsKAvUTGJSdiiPejdw8Vhfivo0vcfNbN/NGbXQG5VwJ8F99f8VXxs9jWOcOnNNrNqX7D/Bu/c5m3TfD53Bj71u5fHRhq9h09dad/OvoP+zl80hXFeUZB16WgpIFecDPQM4H7MBIjBhNFnfM/K0Z4lN461Ald7/23zxb37gkoQ7K3A7TWTCs+KQlQnaV13DPhvt5rOLpqC0pjCaLS0f8kNNyMz1lw5Cr/G3zLu764JsccKPj/aU7wtU9v8H5g4eT5P9PL/WFHUd4+M2f8bJ+0Kj7Joowr+M8Lh01h07JgVaz0def+lGj+5jRYh7VXkFuAblPCkqKuwLfBq4Eks0+seGqLldyzThb+jsV245W849ta1iz92E2yWFCenLvtFB6MSl3MeN7DqB35qm79Wv7Krj39Vv5l/te1L7rOUkFLB39OU8EXDz3wRHu23QzGyQ6EYt+gcXZl7Bw+NmnFBIF1u0p49U9a3jm4DK268mLVKaIMM4ZwPjcpZzdtxeZSa2b7/JwdT2zn11qB329gQvsQPkisFoKSoo7AdcBXwPSzD6x4efDf8eUXh3NEI2gOuiypbSSyvoQVfUhHBFyOyTRKyOJxCbsQSnwxHuHuOfdm9iq1dEZ0BGKsxawaMRMslMCrW6jzaWV3P36//J07WtRu+fs1NO5ZNRS+mQ2bV5bXhtkR1kNe47VEnCERL9D55QE+nZMxhfDJdNH3t7Lrdu+bC+Wd4TqXeAKhLVSsGphKrAU1Z8AHcw+rU+iCH+fdm+jCsYZLUddyOXRzVv4w84fUBaKTjBsmuNwdc+vc8GnLJFFm4NVddz3xuM8fPivUfMQJjp9WTLq6+R3a5vDxLf/cRtP1b5qL4A3CAFvIc48HGerH9UgcLjhfxgxYIJ/qImUh0jwOVw8dDBn9bmL+99YxfLDzT/4esx1+dWOn/DYjiQuG3Qb0/tl0xK+Q2V9iAc3vcQ9+/4v4izkp2IgKVw59DbO6N2pzbb5wao6no2i12k0GxWoAo6snXGf629wscqBMiCDlq/ubHyCMd3mmBE8SFZygBuK5nLu4bP586u/5em65g9k71PDdzdfz9/f7c+lY25idJfoJCAOqfLo5t3cv+3b7NLonOvK9vm4Mu+nzB3Yo8XDwmPNP7e/b3tTHvOoXGSfqNYD+BFHQctRSkF7mlC1PsNy+poRPMyATin8eNpNnL+7jHs3NC+D+HH+5b7Hv165hrnp01gychF5GU2PY1qzu4z7ovS9AJJEuKzr57lo6IR2U8Dz79v/xzq6t6gXYScNK31+VMNCBaVYdopWJ9PnMKxzqhkiDijskcG47j+LqufyWMXTPPHSP7i86+eZN3QCGY0QhncPV0XN04NwKP+irIXMHzajXZU2eedQJRs4bB3cWwRR/UioHHVVRSo0vE9lvm8rMyX59JhGOhmNwyfCvME9ObffnSzf9BL37L+90QUaP0mtKrfv/R0PHLida3J/wAWD+3zmUltpdT33v7GKBw4vP2l4flOYGhjGpaO+yPCc9hf4+8KOtdaxPShUiuw87jz51UlQ1VAF6CFQ86hamcGdZ5oR4pCUgI8rxkxmTtV4lm1cxfLSB5u9x1EWcrlt+7f56wfJXDrgVmb0/3jARUtEIw4jjUuG/owz23CgxGfhKqw88Gfr0N7ieAn6naiEPaq1M+/VgpKF1WGhsizqrU1h92wzQhyTnRIOuJheOo27X/vfqCzDbdVqbtlyPf94fzBLR3+F4TlpPL75APe9fxMffMph2cbS1QmwtPePOX9gD3xO+/XoX99Xzl4r6eFFoapUSd6DLznsUYX/WUPAPoQKwod+bS2qFRhACr0ykswQbYBBWan8eNpNzNx5lHs23szrlDb7ns8H3+GF9VczgBS2UBUdT1CEK7rfyLyh+aTakQjW7Vljndd7hIAdQl2VaniZIixU4VL0+wiHqXfBktO2CkVZFpbe1jgtN5MJPf+Hv769jTt3fpfSUPOOJypERaSOZ8goHn4uOakJ1lANtn12/zIzhPcIAu+joXoaMsT4AVTEFdiHahkWUNF6s/Ds08wIbRCfCPOH9uXc/nfz0JvRPXzbFOamT6N4+CL6dbRUnify1sFjvE+NGcKTQqXvA3XrZz34kUclLi6i+wkf+rWAitbyqHpkmBHaMGkJ4YCLWZVF3Lfhrzx89FHcVlxVH0dXloy4hUkey+LuFdbt3mBG8KhQCbxPuIIO0HC4d93sB1yQoyCHsFRKrYar5ry2B7qkJvCVicXcWfgnzgyMaPHPy5UA3+j7a/733F+ZSH0Gz+25y4zgPVSgRpGdqvJhcN8Jpwu1DtgGVANJWEBFi/PirqOcN6CzGaKdMDQ7lZ+e/S2e2HqIBzZ/k7c5FtX7d3CEq3t9m7kDh7RK4tt45t3DVbwZZfsbUSGksAs42hA78ZFHdfwC4L0GoTJagXve++rDZbwAACAASURBVBoflNkaeXtjRr9s7pxxBzf1+QnZvubHLfkFlmYv4cHT72bB0GEmUhGwbvdmM4JHhYrwsl/lietN/o/8LQmJ6nuEM9aqeVQtzwdaS/FLlzMtsZDhXc+hb2Yuw3PSSLaBps3jc4SLhvRmer+7efDNF7hn3x3UNGEpuLm1odrtasaOe22E8ybB40Il+lFg30dC5RICPpDwWSrbPGlFP/fJmrU8uT2cxiVRhCJnIENzzqJPx2EMz0mjc4qFE7dV0hN8XDVmKtPLx3PPhvt5vOLpiF6+Kb5BLBn9lahlX29P7CyvYZ3sNUN4V6i2oVStm738w1fhY3OKgpXFGQh3ArOARLOZN+gnyYzLOJs+nSYzqksn+mQkt+tsAm2Zi1df9qml2k/k0cl30T3dXtGm8PBbW7ht+y1mCO8RLj8PNwBPrpu1vO4/PCoAFakHNgk6zYTKO2zVarYefRyOPg7vh8swFDoDGZwzld6ZIxjdpUNMypwbRjyyZtcDZgRvEgJ2AwfQj+ed/ZhQiUgQ9A2UOrOZd6lR5fnQZp7fuxn2Am+Hz8ycP+hmpvfLMgMZxqdQWl3PS0ELpPCwUO0UOIDIx4Tq47v2TkoQSXiHcCol26eKI15hH9/ZfB3LNlo5bcP4NJ7dXmqVfL1LEGQnSOnaWcs/Q6hUFXUPE466sEzqccivd97Ka/sqzBCGcRLe2LfcjOBNlP/f3p0GyVVeaR7/n5tZuwQSm8BYsljM6jZmNXgZE7jdoMqSl3a32exuT3dMxPRET0zEzHzsmQ/TM+GYiR67J2Zs7LYbMJZqQRgEWlhtJLGoKrNKQhtCGwjtUpVKS+1VmffMh1vVFgIttd/M+/wiCBxhG6pOpvLJ973nPS904f6h+8dvJP1oUIU9EA71474ZtP1XrK/2qzuXqhAip+kZKrCqX5ckxlQIdBq+2wgLZw2qXKbRDe83eIdT5ixJcdl24k0VQeQ0az48NqazajJlQdXuxi7Mzh5Uw4aAHURX02tAbREaMO3aipxu46GVKkJ8DQF7wQ5lM03huYPKghALOgzbiZ5TFaVqNKVA5COfgqHzavdLKkQ8OdCDsxXnEw8RBp/w/3CHE45vRdt/Rakm0MRskVM17zvOyVDbfjEOqm4z2xAdkTqPoMplGtydLnd7DzVUFKWKdI2KIHKKdw6uURHiHVSdZmwNPuH51CcG1chK2fDdRNfT636qIlOZ1vw3kRGhwyvHlqgQ8TUIbHX8aHNtfXjeQRW1B/peovupFFRFpip9gYogMmzD4S4Oh/oYi7F+nGYPOeOQy+AM30DcsQPALvScquiUp6tVBJFhbQfbVIT4cqDLjZzbmZv3PjGo2hY2uZn1YrYNOIHGKRWVyvQMFUFk2OqDv1ER4itPdBxqP2c5DnXGG/o8eqi1BTiCzlMVlSo9oxIBoivnt9GrQsTXAFjOsB47y02WZwwqwwu4bx9OOm3/FZEKBZUIAG0Hd6kI8dYLnjPoy2UafNRBlattcJzjOBuBPrT9VzTSgZ5RiQDk9j2jIsRXdJsv7AI/63CJ4Gz/pZkNYawluvZDioSZzlGJHOsfYm1hhwoRX4PgG8DbHQ/HHlTpIG9BsIHoej71dxaJinRaRZDEe3PPcd09FW+9YO8Ax3OZJh9zULXcv9jdvRNogzP3uEu8VKUDFUES790jL6oI8TVy7fwOCM45Aemcn2jmPmCwKko/KY6gSqkIkuxPwdB5redlFSK+hoDtju1y7Jxd5ecOqij5NgK70TT1olBdpqCSZFt/uIsTBZ2qiSkHuoHNQHtrpn78QeWGO3QAb6PtvyJZUWnrT5Jt46ENKkJ8hUA78I7h55Up5/xEy9Y2RneFwFvDf5e4B5VWVJJwaw82qgjxVQD2uqU2hJY+r1268/vq7Z4HthONutDh35irLtOKSpJrf9cAG+hUIeJpZOGzHmhvq110Xm2Z5/eJZkFI1KKeQ9t/8V9RqZlCkrya2ndIRYi348Aq88J533d4XkE1PNriJLAO6ESz/2IeVFpRSXJtOPScihBfQ8AOsI1g5302Nxjlv2ALsBN1/8VWhRmpwFQISaS+fMjq/qwKEV+9wOu4HzvbbL/xBFVINJdpM9CvesdTpUJKEqx533H6XdMoYioE2s39dXMfHM3/8byDKpdpdMy6iZ5TdaDtv1i6INTzKUmuzYffUBHiawBoBXabjS4/RvUww7GCYy2470bbf/EMKq9QESSx3uhcqiLEVzfwu9Csq6WuaVTL3lEFVWttfejOAcyah/+lWmPHzAxmqwiSSLuP97Hb9VQipobAdkRDaG3UneOjbg8zs37HXgGOKqjipyKtKz4kmVoPdKgI8TUA3mywNzWGx0Zj6GO2ENjs8A4wqPrHS6Vu95WEeq9D09JjKgQOA1k8PNEyim6/MQdVa2axg3cBLwJdeg3iFlQzVARJ3iehw5q+1SpEPA0B75n7RsY42WhsJ0MtyGNBM9g2NFJJKyqRaba1o5vjmpYeRyPDIrKY7c3WNY3pRRpTULkFDnYAeA3o02sRHxWpahVBEmfLkb0qQkwXu8B+N3s9NBtzVowpqNoWLHI87HX8TWAPuqY+PiuqsgtUBEmcDYeWqwjx1Aesd/fNoY/97O3Yh8KZ5y2aqJ5Fg2pjIx2UqwiSKIXQeWvoHRUifpxoNuxLKehaN4YminEHVWtto2PWQXRPVTuaVBELQwXtxEqyvNvRQ2+oj58YGgS24LyNj2/XbVxjtodvZ2wBtqKmilg41ndARZBEea/joIoQT13AC463Z+sax3XmdlxBla1tDM39w+FV1XF0AHjafXBynYogibKt43UVIX6GogWMrzEb/yJm3BcXuVkvUfefmipiYD2H6ejV4laSo6V3jYoQP93Ay06w3wnGvYAZd1DlMo2hm70LvE10xbBMIwfe2ntMhZBE+PBEH4dDfT+OmTzwvmNrHHpax9FEMWFBFX04pnqc1DKi6+r1VHOaZff9WkWQRGg9qOE4MdQD9qYRbA8sNSHfIiYmqIKZoQcV7wBr0AHgaffawDq2tHerEFLy9h3X/VMxUwD2gq1yKz+Wq100IX0LExJU6x54zAMPTwDP4X4INVVMKweeXP9jQr0KUuJ2draoCPHSC7QZZNPeN2EPy4OJ+gcZvQWDDcAbWlVNv9X5rSzemFUhpGQNFkLWo9FJMTIyJf1VMz/SnGmcsK/KExZU2dqnHQ87DVaiZ1Wx8NP9P+b13Z0qhJSkHZ29umcoXgaATQ5r8u4T2uESTOiPacEgZq1orFJMvt4Yf//ev+ftfcdVDCk5WzvUSBEjDhwFW2oWHmybwNXUhAdVNtPo7nYQeAU4oFXV9OsOQ/7Tpr+hcfNGCq6HVlI6Dp7U1nbMVlNZN3vdrWzCzwsEE/0PdGPAsTeA9UC/Xr/pV3D48Z4f8bcv/ketrqRk7OxcqyLEZzV1BGyJYYdbFyye8G/E6Yn+B7ZmGvy2Zd/fmwoKL4PfAcybjECU0WvjEG0b/4Y7N1zBvVf9O+781JXMn1U1pT9Dfz5k8LQL7roHCx9Z7YUO3YP5j/xvBgtOecq4elYVVWUpvZiJ//LlrGePChEP/UCzO2976JMyFic9Gf/QVMqH3O01w2uBOUCVXsv4yNlBcrv/C+yG2amAG30+M8ovpqrsQtwL9A5+dNU1FPbTn//ouaxujjF42s5ue6r/I+cSCh5tPU6kcuB7Fz/EX99WR40CK7H2nRygX1vZcRACB8GWBwHt2dr6SXlRJiWocrWL/dYXvr8vnQp/C9wOzAVMr2n8HCuEvM370P/++Ddqp2CSzSCw6GgjO159i//1jR9pdZVQ7x/rVRHioQ9oxuxts/SkPeqZtC25svRgAXwVOlclk6CFvSx5t1WFSKj23iMqQjxWU/sMXjQP97UseGrSlriTFlTRuSqO4P40sA91AMoEW37gMRUhofaf3KwiTL8eIGvY6gCb1CNtk9rk4FjesSzwOpqsLhNstw9Q0JyoRNp3YpOKMP2rqf3AcquoONA8ARPSpy2oWusa3fBO4HlgJ9H4dxGRcdnMThVh+ldTq819ddjXO+m7ZZPeNh6SGnK3NuBV4BgaWCsTpBxIBerRSZrj/XmOFfQkYRrlgR1AkwdBe3bh05P+mT7pQdVWV++hcXR4VbUV0PWzMiGqUjqel0QHujWdbZqdAHvWsLZcbcOUfGOYkj/p6zINhcCCDcCLQIdWVTIRalyt6Ul0WEE1nQaAVvBljk/ZpXdT9pXUCXvNWAq0oYG1MgFmhmUqQgId7VNf1jRxohmuz7mzK5dpnLL91ykLqmxtowf5oZ3A08O/rFZVMr4VFTNVhATqHTygIkyPHmAtBL8PgtSUnrie0k3+fEVlgcBeA15D7eoyTlXBDBUhgdp7P1ARpl4B+BCC5y2o3JOtXTylC40pDarW+xe7R8+ongG2oXZ1GYeKdI2KkEBHezSMdhp0AWvMbHV2weNT/uhmytumWhc05DFrA1YAun5WxuzCijkqQhJXVAMfqghTKw/sMHjGPT8ts6umq7/3OLAcWIfurJIxuqh6roqQQEdSutl3CjnQYfB8iqAll2malt6CaQmqXG1DGIS8C/wWzQGUMZpd+WkVIYFOuJ4YTKE+YFXg4RIPB6dtZP20nZhsWdjY42YvA78HTur9IKNVVXaJipAw+dDp1T1UU1Zuol6ChpSnPmhe+My0FX5aj/aHQbDfzBYB76KJFTJKl9WUqwgJ0zNUUBGmhhM1vr2A21v9Nr3L2GkNqnUPLA7zkAWWAIfR2SpRUMlZdA1o22+K9AM5sKV5qzjWVtc4rZ/N0z4srRwbNLNn0dkqGaU5CqrkBdWgVlRToADsBnsmHYbvrc88Oe09BNMeVM219V4I7YBj9cBmtAUo52FGEFCta+gTGFRaUU2BE8ArHgSvrl3YFIuu7FiMn26rq8/j5IClwCG0BSjncFPhchUhgXRP5qQbBDaAN6aGeg7F5YeKzT0Jhp9wt2XAW2gLUM5h7qxbVASRieXAXszqzW19yzeXxuZrQWyCKlfX6IV05XawRnRvlZzDvAu/oCIk8ZNUremT6RiwzDxclq1rjNUNF7G6eW79A0/kC9gqognr2gKUM7qk+koVIaFf+WVS9AFvGbbISHfE7YeL3RWp6zL1J9yCZ4guWdSsFPlE115UrSIkckWlGkyC4YO9ttgttaUlszh2rZWxvMu7r6JmD/BroAVdsiinqTBj3gWVKoTIxCxSDwPPh9jvcrWLYjl7NZZBteXrvwwJytZD6jfATqK+fhEAbvSLSAWmQiT0U1UmVDfYGizd1Jap74jrDxnE9Qfrn/Xlfg/KXwGWEY3y0HtUALjqgttVhISqSgcqwsQZAjaBPdV+/X9+L84/aGxf9U33/FsfGuxuJ2qsUMu6/ItrL/qKipBQM8p1yHsCF6d7gHoCVu2+5guxXgjE+uvJhm8tCc0LW8AWEbWs61i6cN3FOuyb3KBKqwgToxNY7tjSMB/Gvg8g9uvobN2SwVTovwMaiO6u0hZgglWbcfOlM1SIhKrR2KyJ0AOsARYFXjjYtrAx9p+pRbHh27yw8aRb0AA8BxzV+yy57kzdQFqNFMkNKm39jdfwiCSeDNw3ZeueLopLa4vnyWQYHsZ5gmjKus5XJdSNl92nIiRYWWBUmb6ojFEBeB+oN3xVS11T0Rz9KZqgaq1rdIytwONADp2vSqT5s25SERLuAlPn3xi1A89iqeeymaaiulW9qF7xXKYx787bwCJgOzpflSgG3Hb5BSpEwl0eXqgijN5JYCXYU7naxQeK7Ycvuq8mrXWNPea+jOhW4AOouSIxPu8XMatSXV9JN6fyGhVhdPqBN8F+FQS+oxh/gaJcQ2frmjrcbDHRPMBjeh8mw11X/JmKIFxWo6AahTywCXgCfH3LgsawGH+Jot3sba1teB/4FVGbpQ4DJ2FFNec2FUG4pHqeinB+QmA30GTw+1ymsb9Yf5GifiqZqqpeNxxWaq4ocRemAm6/Qs+nBKrKdcXLeRgZNvss7s9kM42dxfzLFHVQNd/3eMEttWo4rDajyRUl697q+3R+SgC4YkaFinBux4AXwJ7I1TV9WOy/TNH3ebbWLu7BfSXRtSCatF6ibrpsoYogw0FVriKcXRfwssPPSVdsL4VfqCQOJOTqmo7hvgSNWSpJAc6/mjdbhRAA5tRUEOiP+Jn0Am+485g7m3P3PxmWxmdAicjVNR0y+A2wFDiisCoddwfXcHFVmQohAFSmAz5LjQrxcQNAG/ArM7JtdY0l8yikpI54ZzONH2DBP4OtQG3rJeOeeY+oCPIR11arA/Q0Q8C7wBOYvZbLNJZUc1npzSIZKGwx+AXwOzQTsOilMe79zGdVCPmI+bNuVRH+IAR2O/YU2PO52oaS+9wruaDKfacpDPB3hsPqLaI9WylSXy27mTk1enguH3Vxjb68DHOi5/KNgVl9LtPQWYq/ZElOd2zONA6GFrwF/BOQJRohIkXorrn/RkWQj7nuIj2jGg6p/UCTuf8qTdBeqr9oyY4hbq2t7wdeHl5Z6UBwEao24/6rL1Yh5GPmz6oklexjdU406/Rpx34xkKrc+3btopJtICvpefm5TGMv8ALwGLCO6NIwKRL3z/wGM3RRnnyC8lTATWFiJ5U4cAh4xrBf2eDgBxsW/Lqku5xL/mKXbKaxF7flYI8B7xB1x0gRuGfut1UEOaMbZn8tqb/60egLuP2yIlW1Lfed34al/gsn4gayXF1DF7AM+CXRqCWFVcxdHpTx1bmzVAg5o6tmfTWJv3YnsAL4WQhb33jg8TAJv3RirsrMZRqO4/4s0Q3BW9FcwFj78yv+lpRm+8lZ/NGci5IZUu7/F9jUlmkIk/KLJ+pO51xdU6d5+DTRXMBtaC5gLFWYUXudzsnI2V17UTUzk/FlxodD6iWDn6Ww9blMY6Im7wRJe3Nn654+gvtiMK2sYmrhBQs0MknOKWXG3WWJ+EJzDHjR4DGCoK25rjFM2msdJPENnqtrOjw8F/CfgC3omVWsZK77joog5+XGy+4r9V+xE1hp2E8p5JuzC+oT+VkVJPUNns00tJt7PfgviK5qVut6DHwluJabL52hQsh5mT+rZK+ld6ADeN7hJ1jQkv3mM4nd/QmS/CbP1jUddQsagZ8D69Gh4Gn3jWv/g4og5+2WOTNJU3LPqUZu5/2twU8M1mdrF4dJfp2DpL/RW2sbjpkFTUSHgtsUVtPnM1bBn2gShYzCzPIUdwVXldKvFBJNnFhi8NOUsyVpjRMKqjOtrGrrTwYEzwL/B1iLZgNOiwc/83dqSZdRu/1T3yqlldR+oNHhsXwqtWVtAhsnFFRn0ZKp7zJYYdg/Am+iqetTaq6VsfD6q1UIGbXPXXZjqayk9gL1YD8bKNh76x5YrJBSUH3CyirT2BMG9grwj8DvgRPopuAp8fD8v6cipbejjN7n58zgwuJ+7wwBu4Anzf2nHqQ/2PTNBn3uKKjOrHVBfV8FqZeB/000qqRdYTW5rrEqvn39PBVCxiRlxn3VXy/WH38A2Iz7zy30n+HhvtYFv9HnzWnSKsHHvZlZnOfxv1t955ydXUSH7RYCn1awT47vzv8fpPVsSsbhukvroOvVYvuxe4kauJ4MzJa21DV26pXUimp0/uq/ey7T2EbUYPEUsBNNsZhwn6Wab19/uQoh4/LVubOKrUm9G1gN/ITAlrRkFFIKqnHwsmAnzs+JplhsRVMsJnY1dfWPtJqScbusppxbmVMUHylEuzQrgP+J+8rcgoYuvYJnp0+I8/TFZQ/ODgP7M+CvgFuAKlVl/OZbBWWuyxFHvG+9FPSEolSFRAd5lxENGdiUyzRql0ZBNbHufPEvqgkH64bD6m7gAtVQRM7DELAbeM7hiUHYvjGjM1IKqkly68pHytMefgX4IfDHwBy0hSoiZ9YPbABrMA+XZuuaPlRJRkd7LqN0aPGmwty/vH0vYWE70X7zFcMrK4WViJzupEVNE/8vIFiarWs8rJIoqKbE/kUbwisfvrEDS20xpxfjMmA2oEuURORUi8H+0czeyGYaulWOsdHW3zjdvfKh6oIHC8D/GvxuYJbqKiIAjt1YFpRtX7vgKT2PUlBNr9tW/bd0umfb3U7hh8D9RNuBWq2KJFwu06jP2Amg5yoTYN29/zXvYX4t2D8AjwPvoYsYRUQUVLH65rSwqRBWzNxm7j/F/R+IJrCLiMg4aVk6Ce5c/mClWXCH4/8a+BPgcjRXUaTUONAFbAIaHFtq+MGczkcpqIomrFY+EuDhPOB7wIPA9UC1ai5SEvLAIWAV8FQ6P/hGT+UFAxvvf1JzRRRURRhYK34wG/JfB38Y+DJwKdpyFSlmvUTPoZ8z96ezdU3bVRIFVdG77aVHy9L5/E1u9jDRlSHXABWqjEhRceAo0fPnxYa9ns00HFVZFFQl42tLvm09NVVzcP+GwfeBLwIztboSKQqDwB7gecMWu4dbc3VN/SqLgqrk3LHiIQutrDLt+VscfxR4gOhCxgq9FiKxFAIngI0OiwLCFwIrP9pcu6ig0iioSt5dKx+53D1cSNRscQtwETokLBIn/cCHwKvg9easy9Y1DagsCqpEufvFh8sLzq24f5eojf2zRJ2BIjJ9CkAnsA5YgtlL3an0ga33/0YdfQqqZLrjpUeNQnipwdfAHwS+Alyi1ZXIlHOgD9gBrMTsecM2Z2vre1QaBZUAd614pBIKVzv2XeBPT1ld6TUSmXx5oANY7dBg8Lanyztb739Kz6IUVHKqL674XpD3VE0K/5IbPwC+ClyGmi1EJksBOAnsMHge92cIUh/kwzC/rq5RW30KKjmTu5c/nAoDm+ce1gLfAv4IuBjddyUyUZzo4O4eYBVmTUA2KBT6WxY+rYBSUMl5ra5e+r750EClB+mbgDrw+4Ebic5e6fmVyNgNEY0/agGeA3udgEO5BQ0KKAWVjMWdKx41PD/b4BY3W0h039VVQJWqIzIqeaJtvo1EA2RfSYXhB2sXPq2DuwoqmZAV1gt/nvYguNgt+DL4Q0RzAy8h2g7U6yhyZiHQA2wHW4rZCtx2FoKynnULntSkcwWVTKS7XvieeSpIu9kV5tSBfxe4GZitwBL5mALRc6j9wGqgCazNLOjO1i5WQCmoZDLdseI75mXzyoKhjhug8E2i7cDrhwNL916JVlDReai9QBZY7marA/eOrO6KUlDJ1LpzxV8Y3j8TCz4P9gD4Hw8H1gwFliTQyIHdA0Az+EqwN1I1NQfzPd1ha6ZJzRIKKpm+wHowMFKzwW9y+Ab4AqIDwzNQh6AkI6D6gSPAW+DLzGkJwvBAoaxsMLegXgGloJI4uGvlo2ZeSAEzHbvB8ZEtwc8AFwwHll5vKSUhMEA0UWKtuS9xo9ncOzAGshmdh1JQSSzdveIhcycopNJV5oWbcf9T4L7hwLoQNV1I8csTNUkcBDaBveDY6+bhESwcyimgFFRSTKushwPHavDw88ACooG31xE1XWgskxSbIaAb+ABoBV7G/W0s1e5Y2JpZrIBSUEmxunPFQ4GF4Uw3u97NvhRNaudWojmClXofSMwNAl1g28DXuLMKs/UBftTdw1ydmiQUVFI6K6zlDwYFC6oNv9KwO4AHwO8B5hBNulDjhcSFA4MWTZLYgPtKt+AtYJd7eMKDVKGtVk0SCiopWXeseDgwKHcLZpuHNxM1XtwLXMkfWtsDVUqmIZwKRC3mncBm4AVgtbnvd7M+LAhzCigFlSQosFZ+3ywspNyCGrxwgxm1RKOZriYaz1Q5HFp6n8hkComePx0nmiLRBrxsRrNbqoNCYShXp4O6CipRaC1/KJUyK3fs045/GfgS+OeB+UTdguVaZckEGyRqLz8MbAWaDVvl+LtAtwVWyGqiuSio5HRfXPFIUEilU4T5WeZ+I3BbtMryW4FLiZ5l6V4sGc/qaQDoAt4FmoF1RG3m+wz6spkG3aorCio5jxXWi48a7gFOlVlwGXAtXvgyxr24X0d0iLhieJWl95GciQ//NUR09qkdyEHqd8B6KOx1ty4zz+c0h08UVDJWd774lwFeSOGFasMvdfgC8ABwB1GL+0hoafqFjIRTSHQwtwc4jtm77rzq+JuG7TNLd5mlBr0wEObqtL0nCiqZqMBa8bCZh+ZYyoxKzOa68xWiZ1o3Ap8CZhFtDapzMHkKwyunLqK5e3ujVZO9jtkmh+PuPmQQtmYUTqKgkilw18pHAsfTODPAPzu8wrqZaIL71cDFRE0YZQqtkl055YmaIvqIOva2Y7YJ91bDN2F21N2GLEgVsgsWKZxEQSXTtNJa+YjhYeBBkDaYgfs8nGuBzwG3g19P1O5eMRxcOlhc3OE0RNQQ0QPsBN4BNhnscrf33Wg3vN/wQlZXa4iCSmIXWi//wKyQD0IsjVNj+EXglxt+s8PdYF8ArgCqh4Pr1HNaej/GL5RGnjcNEl2l0QVsM8g5tILtAtrBT5gzBBZm6xrUFCEKKikOd6x81MxDM8IgCiWrcrNZuN9g7ve42R1EU91nAjVEB4xT/KGTUO/PqQ+mkD+0kPcQDYHtBLaa04xZzo0D5t4D1k+09Rdm9cxJFFRSCu5a+bCFmOFhKsDLwGrA5+Pc4mafA64h6iK8mGjC+8j8wVPDSyZOSNQAURgOnK7hUGoH3sd9E9GW3naM47gNmlnejZDQydY1KpxEQSWl7e6VD5q7B+6WBtLmPiM0m+9wNWZXGTYPfC7waaLBudVEW4XpU8JLzn+1NBJII38dB9sHvg9sr8GHjn/g2C7DD+PeD+QDDwstC5colERBJXLPc9+1fFk65RAQBGVGUIOHlxp+mWOXg88HvxbsquHwuog/tMKfHl5JfG/7KX8fCaORcOoF9oHvBNtlsMfhMNgRj1ZQRwMYdCg4FFozes4kCiqRc7rzpR8YYT4wd3MsBV4FXoMFNRDMcJhjnr8G7GrMrsH9M8PhZzgXGQAAAaNJREFUVT4cXKeHmH3Ce78Y/gz4GcLIT1shDQ3//STwQdSF5++b2fse3YbbBd4N1h0Q9Dmed/DQCNtqFUyioBIZf3CteMgMxy1lkDbHU+aDZbiVE1hZFFB2oYXhlW7MA+a6M8/sX1ZflcMhdupfpx5ONj7axPFJYWbj+PPjZ/nPfoYgGjolhAZP+Wuk2eGQOXsx2+P4Xoc9mB02p9fwQXcfMrMhhwJ4aO64pTyn5gdRUIlMYYAtf8gIAtzAMLNCIeUWNWG4E2CWxoOqwPyS0P1SzC81s0sJw4vdgtmGXwg2E7zyDGFWftrKbOTvqdPC7fQ/T+EpoTPSuHDqdtypATR0SgANELWC9wHHcU5gdAIdhrU7tAdwxPHjDvnAKbhZwfGCu4WetkIQgnlINqOGB1FQiRSFW5f90MpSQ0EYhgHmgZkFhGHgFpgRBGZVKfOeGocZjlVBWI17FUalE1QZfuoKbCS4Kk75M3RqcI2E1NApQVU4JZCGgCHHBgwfMPc+N+sD6zOjD7ceC/M9YRD0AyGOY1HbuBGEDmEawrWZem3XSSL8fwXPKrTiSD1RAAAAAElFTkSuQmCC;" vertex="1" parent="1">
          <mxGeometry x="545" y="194" width="96" height="96" as="geometry" />
        </mxCell>
        <mxCell id="UMffj6f-WVmhNxOPsVtC-8" value="" style="endArrow=classic;startArrow=classic;html=1;rounded=0;entryX=0;entryY=0.5;entryDx=0;entryDy=0;" edge="1" parent="1" source="UMffj6f-WVmhNxOPsVtC-6" target="UMffj6f-WVmhNxOPsVtC-7">
          <mxGeometry width="50" height="50" relative="1" as="geometry">
            <mxPoint x="490" y="430" as="sourcePoint" />
            <mxPoint x="540" y="380" as="targetPoint" />
          </mxGeometry>
        </mxCell>
        <mxCell id="UMffj6f-WVmhNxOPsVtC-9" value="&lt;div&gt;&lt;br&gt;&lt;/div&gt;&lt;div&gt;&lt;br&gt;&lt;/div&gt;&lt;div&gt;&lt;br&gt;&lt;/div&gt;&lt;div&gt;&lt;br&gt;&lt;/div&gt;&lt;div&gt;Send messages&amp;nbsp;&lt;/div&gt;&lt;div&gt;and get answers&lt;/div&gt;" style="endArrow=classic;startArrow=classic;html=1;rounded=0;exitX=1;exitY=0.5;exitDx=0;exitDy=0;" edge="1" parent="1" source="UMffj6f-WVmhNxOPsVtC-7" target="UMffj6f-WVmhNxOPsVtC-3">
          <mxGeometry width="50" height="50" relative="1" as="geometry">
            <mxPoint x="660" y="232" as="sourcePoint" />
            <mxPoint x="875" y="238" as="targetPoint" />
          </mxGeometry>
        </mxCell>
        <mxCell id="UMffj6f-WVmhNxOPsVtC-12" value="Exchange&amp;nbsp;&amp;nbsp;&lt;span style=&quot;background-color: initial;&quot;&gt;messages&lt;/span&gt;&lt;div&gt;via&amp;nbsp;&lt;span style=&quot;background-color: initial;&quot;&gt;WebSocket&lt;/span&gt;&lt;/div&gt;" style="sketch=0;outlineConnect=0;fontColor=#232F3E;gradientColor=none;strokeColor=#232F3E;fillColor=#ffffff;dashed=0;verticalLabelPosition=bottom;verticalAlign=top;align=center;html=1;fontSize=12;fontStyle=0;aspect=fixed;shape=mxgraph.aws4.resourceIcon;resIcon=mxgraph.aws4.http_protocol;" vertex="1" parent="1">
          <mxGeometry x="429" y="210" width="60" height="60" as="geometry" />
        </mxCell>
        <mxCell id="UMffj6f-WVmhNxOPsVtC-46" style="edgeStyle=orthogonalEdgeStyle;rounded=0;orthogonalLoop=1;jettySize=auto;html=1;" edge="1" parent="1" source="UMffj6f-WVmhNxOPsVtC-13" target="UMffj6f-WVmhNxOPsVtC-31">
          <mxGeometry relative="1" as="geometry" />
        </mxCell>
        <mxCell id="UMffj6f-WVmhNxOPsVtC-13" value="" style="shape=message;html=1;html=1;outlineConnect=0;labelPosition=center;verticalLabelPosition=bottom;align=center;verticalAlign=top;" vertex="1" parent="1">
          <mxGeometry x="720" y="211" width="60" height="40" as="geometry" />
        </mxCell>
        <mxCell id="UMffj6f-WVmhNxOPsVtC-16" value="background.js" style="swimlane;whiteSpace=wrap;html=1;" vertex="1" parent="1">
          <mxGeometry x="790" y="350" width="660" height="480" as="geometry">
            <mxRectangle x="270" y="400" width="120" height="30" as="alternateBounds" />
          </mxGeometry>
        </mxCell>
        <mxCell id="UMffj6f-WVmhNxOPsVtC-28" value="WebSocketConnection" style="swimlane;fontStyle=1;align=center;verticalAlign=top;childLayout=stackLayout;horizontal=1;startSize=26;horizontalStack=0;resizeParent=1;resizeParentMax=0;resizeLast=0;collapsible=1;marginBottom=0;whiteSpace=wrap;html=1;" vertex="1" parent="UMffj6f-WVmhNxOPsVtC-16">
          <mxGeometry x="20" y="50" width="170" height="140" as="geometry" />
        </mxCell>
        <mxCell id="UMffj6f-WVmhNxOPsVtC-29" value="+ socket: WebSocket" style="text;strokeColor=none;fillColor=none;align=left;verticalAlign=top;spacingLeft=4;spacingRight=4;overflow=hidden;rotatable=0;points=[[0,0.5],[1,0.5]];portConstraint=eastwest;whiteSpace=wrap;html=1;" vertex="1" parent="UMffj6f-WVmhNxOPsVtC-28">
          <mxGeometry y="26" width="170" height="26" as="geometry" />
        </mxCell>
        <mxCell id="UMffj6f-WVmhNxOPsVtC-30" value="" style="line;strokeWidth=1;fillColor=none;align=left;verticalAlign=middle;spacingTop=-1;spacingLeft=3;spacingRight=3;rotatable=0;labelPosition=right;points=[];portConstraint=eastwest;strokeColor=inherit;" vertex="1" parent="UMffj6f-WVmhNxOPsVtC-28">
          <mxGeometry y="52" width="170" height="8" as="geometry" />
        </mxCell>
        <mxCell id="UMffj6f-WVmhNxOPsVtC-31" value="+ onopen(event): void&lt;div&gt;+ onmessage(event): void&lt;/div&gt;&lt;div&gt;+ onclose(event): void&lt;/div&gt;&lt;div&gt;+ onerror(event): void&lt;/div&gt;" style="text;strokeColor=none;fillColor=none;align=left;verticalAlign=top;spacingLeft=4;spacingRight=4;overflow=hidden;rotatable=0;points=[[0,0.5],[1,0.5]];portConstraint=eastwest;whiteSpace=wrap;html=1;" vertex="1" parent="UMffj6f-WVmhNxOPsVtC-28">
          <mxGeometry y="60" width="170" height="80" as="geometry" />
        </mxCell>
        <mxCell id="UMffj6f-WVmhNxOPsVtC-38" style="edgeStyle=orthogonalEdgeStyle;rounded=0;orthogonalLoop=1;jettySize=auto;html=1;" edge="1" parent="UMffj6f-WVmhNxOPsVtC-16" source="UMffj6f-WVmhNxOPsVtC-33" target="UMffj6f-WVmhNxOPsVtC-36">
          <mxGeometry relative="1" as="geometry" />
        </mxCell>
        <mxCell id="UMffj6f-WVmhNxOPsVtC-33" value="&lt;b&gt;Send Message Function&lt;/b&gt;&lt;div&gt;&lt;br&gt;&lt;/div&gt;&lt;div&gt;1) Inspect Input field of ChatGPT page&lt;/div&gt;&lt;div&gt;&lt;br&gt;&lt;/div&gt;&lt;div&gt;2) Put the websocket message&amp;nbsp;&lt;/div&gt;&lt;div&gt;in input field&lt;/div&gt;&lt;div&gt;&lt;br&gt;&lt;/div&gt;&lt;div&gt;3) Dispatch Event button of&amp;nbsp;&lt;/div&gt;&lt;div&gt;making question&lt;/div&gt;" style="html=1;outlineConnect=0;whiteSpace=wrap;fillColor=#EBEBEB;shape=mxgraph.archimate3.application;appType=func;archiType=rounded;" vertex="1" parent="UMffj6f-WVmhNxOPsVtC-16">
          <mxGeometry x="230" y="49" width="240" height="160" as="geometry" />
        </mxCell>
        <mxCell id="UMffj6f-WVmhNxOPsVtC-36" value="ChatGPT instance tab" style="sketch=0;pointerEvents=1;shadow=0;dashed=0;html=1;strokeColor=none;fillColor=#505050;labelPosition=center;verticalLabelPosition=bottom;verticalAlign=top;outlineConnect=0;align=center;shape=mxgraph.office.concepts.navigation;" vertex="1" parent="UMffj6f-WVmhNxOPsVtC-16">
          <mxGeometry x="516" y="99" width="90" height="60" as="geometry" />
        </mxCell>
        <mxCell id="UMffj6f-WVmhNxOPsVtC-43" style="edgeStyle=orthogonalEdgeStyle;rounded=0;orthogonalLoop=1;jettySize=auto;html=1;" edge="1" parent="UMffj6f-WVmhNxOPsVtC-16" source="UMffj6f-WVmhNxOPsVtC-39" target="UMffj6f-WVmhNxOPsVtC-36">
          <mxGeometry relative="1" as="geometry">
            <Array as="points">
              <mxPoint x="640" y="329" />
              <mxPoint x="640" y="129" />
            </Array>
          </mxGeometry>
        </mxCell>
        <mxCell id="UMffj6f-WVmhNxOPsVtC-39" value="&lt;b&gt;Wait Answer Function&lt;/b&gt;&lt;div&gt;&lt;br&gt;&lt;/div&gt;&lt;div&gt;* While ChatGPT is generating answer&lt;br&gt;&lt;/div&gt;&lt;div&gt;&lt;br&gt;&lt;/div&gt;&lt;div&gt;1) Check every 3 seconds the status of answer&lt;/div&gt;&lt;div&gt;&lt;br&gt;&lt;/div&gt;&lt;div&gt;* After ChatGPT stop generating answer&lt;/div&gt;&lt;div&gt;&lt;br&gt;&lt;/div&gt;&lt;div&gt;1) Get the answer&lt;/div&gt;&lt;div&gt;&lt;br&gt;&lt;/div&gt;&lt;div&gt;2) send the answer to the socket&lt;/div&gt;" style="html=1;outlineConnect=0;whiteSpace=wrap;fillColor=#EBEBEB;shape=mxgraph.archimate3.application;appType=func;archiType=rounded;" vertex="1" parent="UMffj6f-WVmhNxOPsVtC-16">
          <mxGeometry x="215" y="237" width="269" height="183" as="geometry" />
        </mxCell>
        <mxCell id="UMffj6f-WVmhNxOPsVtC-40" style="edgeStyle=orthogonalEdgeStyle;rounded=0;orthogonalLoop=1;jettySize=auto;html=1;entryX=0.5;entryY=0;entryDx=0;entryDy=0;entryPerimeter=0;" edge="1" parent="UMffj6f-WVmhNxOPsVtC-16" source="UMffj6f-WVmhNxOPsVtC-33" target="UMffj6f-WVmhNxOPsVtC-39">
          <mxGeometry relative="1" as="geometry" />
        </mxCell>
        <mxCell id="UMffj6f-WVmhNxOPsVtC-41" style="edgeStyle=orthogonalEdgeStyle;rounded=0;orthogonalLoop=1;jettySize=auto;html=1;entryX=0.394;entryY=1.013;entryDx=0;entryDy=0;entryPerimeter=0;" edge="1" parent="UMffj6f-WVmhNxOPsVtC-16" source="UMffj6f-WVmhNxOPsVtC-39" target="UMffj6f-WVmhNxOPsVtC-31">
          <mxGeometry relative="1" as="geometry">
            <Array as="points">
              <mxPoint x="351" y="470" />
              <mxPoint x="87" y="470" />
            </Array>
          </mxGeometry>
        </mxCell>
        <mxCell id="UMffj6f-WVmhNxOPsVtC-42" style="edgeStyle=orthogonalEdgeStyle;rounded=0;orthogonalLoop=1;jettySize=auto;html=1;" edge="1" parent="UMffj6f-WVmhNxOPsVtC-16" source="UMffj6f-WVmhNxOPsVtC-31" target="UMffj6f-WVmhNxOPsVtC-33">
          <mxGeometry relative="1" as="geometry" />
        </mxCell>
        <mxCell id="UMffj6f-WVmhNxOPsVtC-18" value="popup.js" style="swimlane;whiteSpace=wrap;html=1;" vertex="1" parent="1">
          <mxGeometry x="200" y="450" width="380" height="230" as="geometry">
            <mxRectangle x="270" y="400" width="120" height="30" as="alternateBounds" />
          </mxGeometry>
        </mxCell>
        <mxCell id="UMffj6f-WVmhNxOPsVtC-21" value="Get Opened tab" style="rounded=1;whiteSpace=wrap;html=1;" vertex="1" parent="UMffj6f-WVmhNxOPsVtC-18">
          <mxGeometry x="30" y="60" width="120" height="60" as="geometry" />
        </mxCell>
        <mxCell id="UMffj6f-WVmhNxOPsVtC-25" style="edgeStyle=orthogonalEdgeStyle;rounded=0;orthogonalLoop=1;jettySize=auto;html=1;entryX=0.45;entryY=-0.017;entryDx=0;entryDy=0;entryPerimeter=0;" edge="1" parent="UMffj6f-WVmhNxOPsVtC-18" source="UMffj6f-WVmhNxOPsVtC-22" target="UMffj6f-WVmhNxOPsVtC-24">
          <mxGeometry relative="1" as="geometry">
            <Array as="points">
              <mxPoint x="279" y="130" />
              <mxPoint x="90" y="130" />
            </Array>
          </mxGeometry>
        </mxCell>
        <mxCell id="UMffj6f-WVmhNxOPsVtC-22" value="Draw the buttons" style="rounded=1;whiteSpace=wrap;html=1;" vertex="1" parent="UMffj6f-WVmhNxOPsVtC-18">
          <mxGeometry x="209" y="60" width="140" height="60" as="geometry" />
        </mxCell>
        <mxCell id="UMffj6f-WVmhNxOPsVtC-23" style="edgeStyle=orthogonalEdgeStyle;rounded=0;orthogonalLoop=1;jettySize=auto;html=1;" edge="1" parent="UMffj6f-WVmhNxOPsVtC-18" source="UMffj6f-WVmhNxOPsVtC-21" target="UMffj6f-WVmhNxOPsVtC-22">
          <mxGeometry relative="1" as="geometry" />
        </mxCell>
        <mxCell id="UMffj6f-WVmhNxOPsVtC-27" style="edgeStyle=orthogonalEdgeStyle;rounded=0;orthogonalLoop=1;jettySize=auto;html=1;" edge="1" parent="UMffj6f-WVmhNxOPsVtC-18" source="UMffj6f-WVmhNxOPsVtC-24" target="UMffj6f-WVmhNxOPsVtC-26">
          <mxGeometry relative="1" as="geometry" />
        </mxCell>
        <mxCell id="UMffj6f-WVmhNxOPsVtC-24" value="Add event function&lt;div&gt;to &quot;Connect to WebSocket&quot; button&lt;/div&gt;" style="rounded=1;whiteSpace=wrap;html=1;" vertex="1" parent="UMffj6f-WVmhNxOPsVtC-18">
          <mxGeometry x="27" y="153" width="140" height="60" as="geometry" />
        </mxCell>
        <mxCell id="UMffj6f-WVmhNxOPsVtC-26" value="Add event function to &quot;Send test message&quot;&amp;nbsp;&lt;br&gt;&lt;div&gt;button&lt;/div&gt;" style="rounded=1;whiteSpace=wrap;html=1;" vertex="1" parent="UMffj6f-WVmhNxOPsVtC-18">
          <mxGeometry x="207" y="153" width="140" height="60" as="geometry" />
        </mxCell>
        <mxCell id="UMffj6f-WVmhNxOPsVtC-44" style="edgeStyle=orthogonalEdgeStyle;rounded=0;orthogonalLoop=1;jettySize=auto;html=1;entryX=1;entryY=0.5;entryDx=0;entryDy=0;" edge="1" parent="1" source="UMffj6f-WVmhNxOPsVtC-36" target="UMffj6f-WVmhNxOPsVtC-3">
          <mxGeometry relative="1" as="geometry">
            <Array as="points">
              <mxPoint x="1350" y="242" />
            </Array>
          </mxGeometry>
        </mxCell>
        <mxCell id="UMffj6f-WVmhNxOPsVtC-47" style="edgeStyle=orthogonalEdgeStyle;rounded=0;orthogonalLoop=1;jettySize=auto;html=1;entryX=0.5;entryY=-0.026;entryDx=0;entryDy=0;entryPerimeter=0;" edge="1" parent="1" source="UMffj6f-WVmhNxOPsVtC-7" target="UMffj6f-WVmhNxOPsVtC-18">
          <mxGeometry relative="1" as="geometry" />
        </mxCell>
      </root>
    </mxGraphModel>
  </diagram>
</mxfile>
